<svg width="328" height="108" viewBox="0 0 328 108" fill="none" xmlns="http://www.w3.org/2000/svg">
<path d="M0 12C0 5.37258 5.37258 0 12 0H316C322.627 0 328 5.37258 328 12V96C328 102.627 322.627 108 316 108H12C5.37259 108 0 102.627 0 96V12Z" fill="url(#paint0_linear_1652_20189)" fill-opacity="0.65"/>
<!-- Animated metallic gradient stroke -->
<rect x="0.75" y="0.75" width="326.5" height="106.5" rx="11.25" ry="11.25" fill="none" stroke="url(#metallicStroke)" stroke-width="1.5">
<animate attributeName="stroke-opacity" values="1;1;0" keyTimes="0;0.9;1" begin="4.5s" dur="0.5s" fill="freeze"/>
</rect>
<path d="M23.3942 38H20.4283L24.9474 24.9091H28.5142L33.027 38H30.0611L26.782 27.9006H26.6797L23.3942 38ZM23.2088 32.8544H30.2145V35.0149H23.2088V32.8544ZM38.5305 38.1918C37.5249 38.1918 36.6598 37.9787 35.9354 37.5526C35.2152 37.1222 34.6612 36.5256 34.2734 35.7628C33.8899 35 33.6982 34.1222 33.6982 33.1293C33.6982 32.1236 33.892 31.2415 34.2798 30.483C34.6719 29.7202 35.228 29.1257 35.9482 28.6996C36.6683 28.2692 37.5249 28.054 38.5178 28.054C39.3743 28.054 40.1243 28.2095 40.7678 28.5206C41.4112 28.8317 41.9205 29.2685 42.2955 29.831C42.6705 30.3935 42.8771 31.054 42.9155 31.8125H40.3459C40.2734 31.3224 40.0817 30.9283 39.7706 30.63C39.4638 30.3274 39.0611 30.1761 38.5625 30.1761C38.1406 30.1761 37.772 30.2912 37.4567 30.5213C37.1456 30.7472 36.9027 31.0774 36.728 31.5121C36.5533 31.9467 36.4659 32.473 36.4659 33.0909C36.4659 33.7173 36.5511 34.25 36.7216 34.6889C36.8963 35.1278 37.1413 35.4624 37.4567 35.6925C37.772 35.9226 38.1406 36.0376 38.5625 36.0376C38.8736 36.0376 39.1527 35.9737 39.3999 35.8459C39.6513 35.718 39.858 35.5327 40.0199 35.2898C40.1861 35.0426 40.2947 34.7464 40.3459 34.4013H42.9155C42.8729 35.1513 42.6683 35.8118 42.3018 36.3828C41.9396 36.9496 41.4389 37.3928 40.7997 37.7124C40.1605 38.032 39.4041 38.1918 38.5305 38.1918ZM49.8812 28.1818V30.2273H43.9686V28.1818H49.8812ZM45.3109 25.8295H48.0339V34.983C48.0339 35.2344 48.0723 35.4304 48.149 35.571C48.2257 35.7074 48.3322 35.8033 48.4686 35.8587C48.6092 35.9141 48.7711 35.9418 48.9544 35.9418C49.0822 35.9418 49.21 35.9311 49.3379 35.9098C49.4657 35.8842 49.5637 35.8651 49.6319 35.8523L50.0602 37.8786C49.9238 37.9212 49.7321 37.9702 49.4849 38.0256C49.2377 38.0852 48.9373 38.1214 48.5836 38.1342C47.9274 38.1598 47.3521 38.0724 46.8578 37.8722C46.3677 37.6719 45.9863 37.3608 45.7136 36.9389C45.4409 36.517 45.3066 35.9844 45.3109 35.3409V25.8295ZM51.655 38V28.1818H54.378V38H51.655ZM53.0229 26.9162C52.6181 26.9162 52.2708 26.782 51.981 26.5135C51.6955 26.2408 51.5527 25.9148 51.5527 25.5355C51.5527 25.1605 51.6955 24.8388 51.981 24.5703C52.2708 24.2976 52.6181 24.1612 53.0229 24.1612C53.4277 24.1612 53.7729 24.2976 54.0584 24.5703C54.3482 24.8388 54.4931 25.1605 54.4931 25.5355C54.4931 25.9148 54.3482 26.2408 54.0584 26.5135C53.7729 26.782 53.4277 26.9162 53.0229 26.9162ZM65.7127 28.1818L62.2802 38H59.212L55.7795 28.1818H58.6559L60.695 35.2067H60.7972L62.8299 28.1818H65.7127ZM69.6422 38.1854C69.0158 38.1854 68.4576 38.0767 67.9675 37.8594C67.4775 37.6378 67.0897 37.3118 66.8042 36.8814C66.5229 36.4467 66.3823 35.9055 66.3823 35.2578C66.3823 34.7124 66.4824 34.2543 66.6827 33.8835C66.883 33.5128 67.1557 33.2145 67.5009 32.9886C67.8461 32.7628 68.2381 32.5923 68.677 32.4773C69.1202 32.3622 69.5847 32.2812 70.0705 32.2344C70.6415 32.1747 71.1017 32.1193 71.4512 32.0682C71.8006 32.0128 72.0542 31.9318 72.2118 31.8253C72.3695 31.7187 72.4483 31.5611 72.4483 31.3523V31.3139C72.4483 30.9091 72.3205 30.5959 72.0648 30.3743C71.8134 30.1527 71.4554 30.0419 70.9909 30.0419C70.5009 30.0419 70.111 30.1506 69.8212 30.3679C69.5314 30.581 69.3397 30.8494 69.2459 31.1733L66.7275 30.9688C66.8553 30.3722 67.1067 29.8565 67.4817 29.4219C67.8567 28.983 68.3404 28.6463 68.9327 28.4119C69.5293 28.1733 70.2196 28.054 71.0037 28.054C71.5492 28.054 72.0712 28.1179 72.5698 28.2457C73.0726 28.3736 73.5179 28.5717 73.9057 28.8402C74.2978 29.1087 74.6067 29.4538 74.8326 29.8757C75.0584 30.2933 75.1713 30.794 75.1713 31.3778V38H72.589V36.6385H72.5123C72.3546 36.9453 72.1436 37.2159 71.8794 37.4503C71.6152 37.6804 71.2978 37.8615 70.927 37.9936C70.5563 38.1214 70.128 38.1854 69.6422 38.1854ZM70.4221 36.3061C70.8226 36.3061 71.1763 36.2273 71.4831 36.0696C71.79 35.9077 72.0307 35.6903 72.2054 35.4176C72.3801 35.1449 72.4675 34.8359 72.4675 34.4908V33.4489C72.3823 33.5043 72.2651 33.5554 72.1159 33.6023C71.9711 33.6449 71.807 33.6854 71.6238 33.7237C71.4405 33.7578 71.2573 33.7898 71.074 33.8196C70.8908 33.8452 70.7246 33.8686 70.5755 33.8899C70.2559 33.9368 69.9767 34.0114 69.7381 34.1136C69.4995 34.2159 69.3141 34.3544 69.182 34.5291C69.0499 34.6996 68.9838 34.9126 68.9838 35.1683C68.9838 35.5391 69.1181 35.8224 69.3865 36.0185C69.6593 36.2102 70.0044 36.3061 70.4221 36.3061ZM82.5062 28.1818V30.2273H76.5936V28.1818H82.5062ZM77.9359 25.8295H80.6589V34.983C80.6589 35.2344 80.6973 35.4304 80.774 35.571C80.8507 35.7074 80.9572 35.8033 81.0936 35.8587C81.2342 35.9141 81.3961 35.9418 81.5794 35.9418C81.7072 35.9418 81.835 35.9311 81.9629 35.9098C82.0907 35.8842 82.1887 35.8651 82.2569 35.8523L82.6852 37.8786C82.5488 37.9212 82.3571 37.9702 82.1099 38.0256C81.8627 38.0852 81.5623 38.1214 81.2086 38.1342C80.5524 38.1598 79.9771 38.0724 79.4828 37.8722C78.9927 37.6719 78.6113 37.3608 78.3386 36.9389C78.0659 36.517 77.9316 35.9844 77.9359 35.3409V25.8295ZM88.649 38.1918C87.639 38.1918 86.7697 37.9872 86.041 37.5781C85.3166 37.1648 84.7583 36.581 84.3663 35.8267C83.9743 35.0682 83.7782 34.1712 83.7782 33.1357C83.7782 32.1257 83.9743 31.2393 84.3663 30.4766C84.7583 29.7138 85.3102 29.1193 86.0218 28.6932C86.7377 28.267 87.5772 28.054 88.5403 28.054C89.188 28.054 89.791 28.1584 90.3493 28.3672C90.9118 28.5717 91.4018 28.8807 91.8194 29.294C92.2413 29.7074 92.5694 30.2273 92.8038 30.8537C93.0382 31.4759 93.1554 32.2045 93.1554 33.0398V33.7876H84.8649V32.1001H90.5922C90.5922 31.7081 90.5069 31.3608 90.3365 31.0582C90.166 30.7557 89.9295 30.5192 89.627 30.3487C89.3287 30.174 88.9814 30.0866 88.5851 30.0866C88.1717 30.0866 87.8052 30.1825 87.4856 30.3743C87.1703 30.5618 86.9231 30.8153 86.7441 31.1349C86.5652 31.4503 86.4735 31.8018 86.4693 32.1896V33.794C86.4693 34.2798 86.5588 34.6996 86.7377 35.0533C86.921 35.407 87.1788 35.6797 87.5112 35.8714C87.8436 36.0632 88.2377 36.1591 88.6937 36.1591C88.9963 36.1591 89.2733 36.1165 89.5247 36.0312C89.7761 35.946 89.9913 35.8182 90.1703 35.6477C90.3493 35.4773 90.4856 35.2685 90.5794 35.0213L93.0978 35.1875C92.97 35.7926 92.7079 36.321 92.3116 36.7727C91.9196 37.2202 91.4125 37.5696 90.7903 37.821C90.1724 38.0682 89.4586 38.1918 88.649 38.1918ZM100.779 41.6818C100.434 41.6818 100.11 41.6541 99.8079 41.5987C99.5096 41.5476 99.2624 41.4815 99.0664 41.4006L99.68 39.3679C99.9996 39.4659 100.287 39.5192 100.543 39.5277C100.803 39.5362 101.027 39.4766 101.214 39.3487C101.406 39.2209 101.561 39.0036 101.681 38.6967L101.841 38.2812L98.3185 28.1818H101.182L103.215 35.392H103.317L105.369 28.1818H108.252L104.436 39.0611C104.252 39.5895 104.003 40.0497 103.688 40.4418C103.377 40.8381 102.983 41.1428 102.505 41.3558C102.028 41.5732 101.453 41.6818 100.779 41.6818ZM113.765 38.1918C112.772 38.1918 111.913 37.9808 111.189 37.5589C110.469 37.1328 109.913 36.5405 109.521 35.782C109.129 35.0192 108.933 34.1349 108.933 33.1293C108.933 32.1151 109.129 31.2287 109.521 30.4702C109.913 29.7074 110.469 29.1151 111.189 28.6932C111.913 28.267 112.772 28.054 113.765 28.054C114.758 28.054 115.614 28.267 116.335 28.6932C117.059 29.1151 117.617 29.7074 118.009 30.4702C118.401 31.2287 118.597 32.1151 118.597 33.1293C118.597 34.1349 118.401 35.0192 118.009 35.782C117.617 36.5405 117.059 37.1328 116.335 37.5589C115.614 37.9808 114.758 38.1918 113.765 38.1918ZM113.778 36.0824C114.229 36.0824 114.607 35.9545 114.909 35.6989C115.212 35.4389 115.44 35.0852 115.593 34.6378C115.751 34.1903 115.83 33.6811 115.83 33.1101C115.83 32.5391 115.751 32.0298 115.593 31.5824C115.44 31.1349 115.212 30.7812 114.909 30.5213C114.607 30.2614 114.229 30.1314 113.778 30.1314C113.322 30.1314 112.938 30.2614 112.627 30.5213C112.32 30.7812 112.088 31.1349 111.93 31.5824C111.777 32.0298 111.7 32.5391 111.7 33.1101C111.7 33.6811 111.777 34.1903 111.93 34.6378C112.088 35.0852 112.32 35.4389 112.627 35.6989C112.938 35.9545 113.322 36.0824 113.778 36.0824ZM126.664 33.8196V28.1818H129.387V38H126.773V36.2166H126.67C126.449 36.7919 126.08 37.2543 125.565 37.6037C125.053 37.9531 124.429 38.1278 123.692 38.1278C123.036 38.1278 122.458 37.9787 121.96 37.6804C121.461 37.3821 121.071 36.9581 120.79 36.4084C120.513 35.8587 120.372 35.2003 120.368 34.4332V28.1818H123.091V33.9474C123.095 34.527 123.251 34.9851 123.558 35.3217C123.864 35.6584 124.276 35.8267 124.791 35.8267C125.119 35.8267 125.426 35.7521 125.712 35.603C125.997 35.4496 126.227 35.2237 126.402 34.9254C126.581 34.6271 126.668 34.2585 126.664 33.8196ZM131.565 38V28.1818H134.205V29.8949H134.307C134.486 29.2855 134.787 28.8253 135.209 28.5142C135.631 28.1989 136.116 28.0412 136.666 28.0412C136.802 28.0412 136.949 28.0497 137.107 28.0668C137.265 28.0838 137.403 28.1072 137.523 28.1371V30.5533C137.395 30.5149 137.218 30.4808 136.992 30.451C136.766 30.4212 136.559 30.4062 136.372 30.4062C135.971 30.4062 135.613 30.4936 135.298 30.6683C134.987 30.8388 134.74 31.0774 134.557 31.3842C134.378 31.6911 134.288 32.0447 134.288 32.4453V38H131.565ZM145.896 38.1854C145.27 38.1854 144.711 38.0767 144.221 37.8594C143.731 37.6378 143.344 37.3118 143.058 36.8814C142.777 36.4467 142.636 35.9055 142.636 35.2578C142.636 34.7124 142.736 34.2543 142.937 33.8835C143.137 33.5128 143.41 33.2145 143.755 32.9886C144.1 32.7628 144.492 32.5923 144.931 32.4773C145.374 32.3622 145.839 32.2812 146.324 32.2344C146.895 32.1747 147.356 32.1193 147.705 32.0682C148.055 32.0128 148.308 31.9318 148.466 31.8253C148.623 31.7187 148.702 31.5611 148.702 31.3523V31.3139C148.702 30.9091 148.574 30.5959 148.319 30.3743C148.067 30.1527 147.709 30.0419 147.245 30.0419C146.755 30.0419 146.365 30.1506 146.075 30.3679C145.785 30.581 145.594 30.8494 145.5 31.1733L142.981 30.9688C143.109 30.3722 143.361 29.8565 143.736 29.4219C144.111 28.983 144.594 28.6463 145.187 28.4119C145.783 28.1733 146.474 28.054 147.258 28.054C147.803 28.054 148.325 28.1179 148.824 28.2457C149.327 28.3736 149.772 28.5717 150.16 28.8402C150.552 29.1087 150.861 29.4538 151.086 29.8757C151.312 30.2933 151.425 30.794 151.425 31.3778V38H148.843V36.6385H148.766C148.608 36.9453 148.398 37.2159 148.133 37.4503C147.869 37.6804 147.552 37.8615 147.181 37.9936C146.81 38.1214 146.382 38.1854 145.896 38.1854ZM146.676 36.3061C147.077 36.3061 147.43 36.2273 147.737 36.0696C148.044 35.9077 148.285 35.6903 148.459 35.4176C148.634 35.1449 148.721 34.8359 148.721 34.4908V33.4489C148.636 33.5043 148.519 33.5554 148.37 33.6023C148.225 33.6449 148.061 33.6854 147.878 33.7237C147.694 33.7578 147.511 33.7898 147.328 33.8196C147.145 33.8452 146.979 33.8686 146.829 33.8899C146.51 33.9368 146.231 34.0114 145.992 34.1136C145.753 34.2159 145.568 34.3544 145.436 34.5291C145.304 34.6996 145.238 34.9126 145.238 35.1683C145.238 35.5391 145.372 35.8224 145.64 36.0185C145.913 36.2102 146.258 36.3061 146.676 36.3061ZM157.974 38.1918C156.968 38.1918 156.103 37.9787 155.379 37.5526C154.659 37.1222 154.105 36.5256 153.717 35.7628C153.333 35 153.142 34.1222 153.142 33.1293C153.142 32.1236 153.335 31.2415 153.723 30.483C154.115 29.7202 154.671 29.1257 155.392 28.6996C156.112 28.2692 156.968 28.054 157.961 28.054C158.818 28.054 159.568 28.2095 160.211 28.5206C160.855 28.8317 161.364 29.2685 161.739 29.831C162.114 30.3935 162.32 31.054 162.359 31.8125H159.789C159.717 31.3224 159.525 30.9283 159.214 30.63C158.907 30.3274 158.504 30.1761 158.006 30.1761C157.584 30.1761 157.215 30.2912 156.9 30.5213C156.589 30.7472 156.346 31.0774 156.171 31.5121C155.997 31.9467 155.909 32.473 155.909 33.0909C155.909 33.7173 155.994 34.25 156.165 34.6889C156.34 35.1278 156.585 35.4624 156.9 35.6925C157.215 35.9226 157.584 36.0376 158.006 36.0376C158.317 36.0376 158.596 35.9737 158.843 35.8459C159.095 35.718 159.301 35.5327 159.463 35.2898C159.629 35.0426 159.738 34.7464 159.789 34.4013H162.359C162.316 35.1513 162.112 35.8118 161.745 36.3828C161.383 36.9496 160.882 37.3928 160.243 37.7124C159.604 38.032 158.847 38.1918 157.974 38.1918ZM168.538 38.1918C167.533 38.1918 166.668 37.9787 165.943 37.5526C165.223 37.1222 164.669 36.5256 164.281 35.7628C163.898 35 163.706 34.1222 163.706 33.1293C163.706 32.1236 163.9 31.2415 164.288 30.483C164.68 29.7202 165.236 29.1257 165.956 28.6996C166.676 28.2692 167.533 28.054 168.526 28.054C169.382 28.054 170.132 28.2095 170.776 28.5206C171.419 28.8317 171.928 29.2685 172.303 29.831C172.678 30.3935 172.885 31.054 172.923 31.8125H170.354C170.281 31.3224 170.089 30.9283 169.778 30.63C169.472 30.3274 169.069 30.1761 168.57 30.1761C168.148 30.1761 167.78 30.2912 167.464 30.5213C167.153 30.7472 166.911 31.0774 166.736 31.5121C166.561 31.9467 166.474 32.473 166.474 33.0909C166.474 33.7173 166.559 34.25 166.729 34.6889C166.904 35.1278 167.149 35.4624 167.464 35.6925C167.78 35.9226 168.148 36.0376 168.57 36.0376C168.881 36.0376 169.161 35.9737 169.408 35.8459C169.659 35.718 169.866 35.5327 170.028 35.2898C170.194 35.0426 170.303 34.7464 170.354 34.4013H172.923C172.881 35.1513 172.676 35.8118 172.31 36.3828C171.947 36.9496 171.447 37.3928 170.808 37.7124C170.168 38.032 169.412 38.1918 168.538 38.1918ZM179.103 38.1918C178.11 38.1918 177.251 37.9808 176.527 37.5589C175.807 37.1328 175.251 36.5405 174.858 35.782C174.466 35.0192 174.27 34.1349 174.27 33.1293C174.27 32.1151 174.466 31.2287 174.858 30.4702C175.251 29.7074 175.807 29.1151 176.527 28.6932C177.251 28.267 178.11 28.054 179.103 28.054C180.096 28.054 180.952 28.267 181.672 28.6932C182.397 29.1151 182.955 29.7074 183.347 30.4702C183.739 31.2287 183.935 32.1151 183.935 33.1293C183.935 34.1349 183.739 35.0192 183.347 35.782C182.955 36.5405 182.397 37.1328 181.672 37.5589C180.952 37.9808 180.096 38.1918 179.103 38.1918ZM179.116 36.0824C179.567 36.0824 179.944 35.9545 180.247 35.6989C180.55 35.4389 180.778 35.0852 180.931 34.6378C181.089 34.1903 181.167 33.6811 181.167 33.1101C181.167 32.5391 181.089 32.0298 180.931 31.5824C180.778 31.1349 180.55 30.7812 180.247 30.5213C179.944 30.2614 179.567 30.1314 179.116 30.1314C178.66 30.1314 178.276 30.2614 177.965 30.5213C177.658 30.7812 177.426 31.1349 177.268 31.5824C177.115 32.0298 177.038 32.5391 177.038 33.1101C177.038 33.6811 177.115 34.1903 177.268 34.6378C177.426 35.0852 177.658 35.4389 177.965 35.6989C178.276 35.9545 178.66 36.0824 179.116 36.0824ZM192.002 33.8196V28.1818H194.725V38H192.111V36.2166H192.008C191.787 36.7919 191.418 37.2543 190.903 37.6037C190.391 37.9531 189.767 38.1278 189.03 38.1278C188.373 38.1278 187.796 37.9787 187.297 37.6804C186.799 37.3821 186.409 36.9581 186.128 36.4084C185.851 35.8587 185.71 35.2003 185.706 34.4332V28.1818H188.429V33.9474C188.433 34.527 188.589 34.9851 188.895 35.3217C189.202 35.6584 189.613 35.8267 190.129 35.8267C190.457 35.8267 190.764 35.7521 191.05 35.603C191.335 35.4496 191.565 35.2237 191.74 34.9254C191.919 34.6271 192.006 34.2585 192.002 33.8196ZM199.626 32.3239V38H196.903V28.1818H199.498V29.9141H199.613C199.831 29.343 200.195 28.8913 200.706 28.5589C201.218 28.2223 201.838 28.054 202.566 28.054C203.248 28.054 203.843 28.2031 204.35 28.5014C204.857 28.7997 205.251 29.2259 205.532 29.7798C205.814 30.3295 205.954 30.9858 205.954 31.7486V38H203.231V32.2344C203.235 31.6335 203.082 31.1648 202.771 30.8281C202.46 30.4872 202.032 30.3168 201.486 30.3168C201.12 30.3168 200.796 30.3956 200.515 30.5533C200.238 30.7109 200.02 30.9411 199.863 31.2436C199.709 31.5419 199.63 31.902 199.626 32.3239ZM213.323 28.1818V30.2273H207.41V28.1818H213.323ZM208.752 25.8295H211.475V34.983C211.475 35.2344 211.514 35.4304 211.59 35.571C211.667 35.7074 211.774 35.8033 211.91 35.8587C212.051 35.9141 212.213 35.9418 212.396 35.9418C212.524 35.9418 212.651 35.9311 212.779 35.9098C212.907 35.8842 213.005 35.8651 213.073 35.8523L213.502 37.8786C213.365 37.9212 213.173 37.9702 212.926 38.0256C212.679 38.0852 212.379 38.1214 212.025 38.1342C211.369 38.1598 210.794 38.0724 210.299 37.8722C209.809 37.6719 209.428 37.3608 209.155 36.9389C208.882 36.517 208.748 35.9844 208.752 35.3409V25.8295Z" fill="white"/>
<path d="M299.205 34.5168L302.723 30.9986L299.205 27.4805" stroke="white" stroke-width="1.75907" stroke-linecap="round"/>
<path d="M24.6857 61.5455V71H22.973V63.212H22.9176L20.7063 64.6246V63.055L23.0561 61.5455H24.6857ZM33.4224 71.1385C32.7299 71.1385 32.1298 70.9862 31.622 70.6815C31.1142 70.3768 30.7202 69.9505 30.4402 69.4027C30.1632 68.8549 30.0247 68.2147 30.0247 67.4822C30.0247 66.7498 30.1632 66.1081 30.4402 65.5572C30.7202 65.0063 31.1142 64.5785 31.622 64.2738C32.1298 63.9691 32.7299 63.8168 33.4224 63.8168C34.1149 63.8168 34.715 63.9691 35.2228 64.2738C35.7306 64.5785 36.123 65.0063 36.4 65.5572C36.6801 66.1081 36.8201 66.7498 36.8201 67.4822C36.8201 68.2147 36.6801 68.8549 36.4 69.4027C36.123 69.9505 35.7306 70.3768 35.2228 70.6815C34.715 70.9862 34.1149 71.1385 33.4224 71.1385ZM33.4316 69.7997C33.8071 69.7997 34.121 69.6966 34.3734 69.4904C34.6258 69.2811 34.8135 69.0011 34.9366 68.6502C35.0628 68.2994 35.1259 67.9085 35.1259 67.4776C35.1259 67.0437 35.0628 66.6513 34.9366 66.3004C34.8135 65.9465 34.6258 65.6649 34.3734 65.4556C34.121 65.2463 33.8071 65.1417 33.4316 65.1417C33.0469 65.1417 32.7269 65.2463 32.4714 65.4556C32.219 65.6649 32.0298 65.9465 31.9036 66.3004C31.7805 66.6513 31.7189 67.0437 31.7189 67.4776C31.7189 67.9085 31.7805 68.2994 31.9036 68.6502C32.0298 69.0011 32.219 69.2811 32.4714 69.4904C32.7269 69.6966 33.0469 69.7997 33.4316 69.7997ZM41.8302 63.9091V65.2017H37.6384V63.9091H41.8302ZM38.6863 71V63.2397C38.6863 62.7627 38.7848 62.3656 38.9818 62.0487C39.1818 61.7317 39.4496 61.4947 39.7851 61.3377C40.1205 61.1808 40.4929 61.1023 40.9023 61.1023C41.1916 61.1023 41.4485 61.1254 41.6732 61.1715C41.8979 61.2177 42.0641 61.2592 42.1718 61.2962L41.8394 62.5888C41.7686 62.5672 41.6794 62.5457 41.5716 62.5241C41.4639 62.4995 41.3439 62.4872 41.2116 62.4872C40.9007 62.4872 40.6807 62.5626 40.5514 62.7134C40.4252 62.8612 40.3621 63.0735 40.3621 63.3505V71H38.6863ZM46.1743 69.2457V67.8839L50.186 61.5455H51.3216V63.4844H50.6292L47.9285 67.7638V67.8377H53.5283V69.2457H46.1743ZM50.6846 71V68.8303L50.703 68.2209V61.5455H52.3188V71H50.6846ZM63.8508 65.7834L62.3273 65.9496C62.2842 65.7957 62.2088 65.651 62.1011 65.5156C61.9965 65.3802 61.8549 65.271 61.6764 65.1879C61.4979 65.1048 61.2794 65.0632 61.0209 65.0632C60.6731 65.0632 60.3807 65.1386 60.1437 65.2894C59.9098 65.4402 59.7944 65.6357 59.7975 65.8757C59.7944 66.0819 59.8698 66.2496 60.0237 66.3789C60.1807 66.5082 60.4392 66.6143 60.7993 66.6974L62.0088 66.956C62.6797 67.1006 63.1783 67.3299 63.5045 67.6438C63.8338 67.9577 64 68.3686 64.0031 68.8764C64 69.3227 63.8692 69.7166 63.6107 70.0582C63.3553 70.3968 62.9998 70.6615 62.5443 70.8523C62.0888 71.0431 61.5656 71.1385 60.9747 71.1385C60.1068 71.1385 59.4082 70.9569 58.8788 70.5938C58.3495 70.2275 58.034 69.7182 57.9324 69.0657L59.5621 68.9087C59.6359 69.2288 59.7929 69.4704 60.0329 69.6335C60.273 69.7966 60.5854 69.8782 60.9701 69.8782C61.3671 69.8782 61.6856 69.7966 61.9257 69.6335C62.1688 69.4704 62.2904 69.2688 62.2904 69.0288C62.2904 68.8256 62.2119 68.6579 62.055 68.5256C61.9011 68.3932 61.661 68.2917 61.3348 68.2209L60.1253 67.967C59.4451 67.8254 58.9419 67.5869 58.6157 67.2514C58.2894 66.9129 58.1279 66.4851 58.1309 65.968C58.1279 65.531 58.2464 65.1525 58.4864 64.8324C58.7296 64.5092 59.0666 64.2599 59.4974 64.0845C59.9314 63.906 60.4315 63.8168 60.9978 63.8168C61.8287 63.8168 62.4827 63.9937 62.9598 64.3477C63.4399 64.7016 63.7369 65.1802 63.8508 65.7834ZM68.922 63.9091V65.2017H64.8456V63.9091H68.922ZM65.852 62.2102H67.5232V68.8672C67.5232 69.0919 67.557 69.2642 67.6247 69.3842C67.6955 69.5012 67.7878 69.5812 67.9017 69.6243C68.0156 69.6674 68.1418 69.6889 68.2803 69.6889C68.3849 69.6889 68.4803 69.6812 68.5665 69.6658C68.6557 69.6504 68.7235 69.6366 68.7696 69.6243L69.0512 70.9308C68.962 70.9615 68.8343 70.9954 68.6681 71.0323C68.5049 71.0692 68.3049 71.0908 68.0679 71.0969C67.6494 71.1093 67.2723 71.0462 66.9369 70.9077C66.6014 70.7661 66.3352 70.5476 66.1382 70.2521C65.9443 69.9567 65.8489 69.5874 65.852 69.1442V62.2102ZM73.3826 71.1385C72.6717 71.1385 72.0577 70.9908 71.5407 70.6953C71.0267 70.3968 70.6312 69.9751 70.3542 69.4304C70.0772 68.8826 69.9387 68.2378 69.9387 67.4961C69.9387 66.7667 70.0772 66.1265 70.3542 65.5756C70.6343 65.0217 71.0252 64.5908 71.5268 64.283C72.0285 63.9722 72.6178 63.8168 73.2949 63.8168C73.7319 63.8168 74.1444 63.8875 74.5321 64.0291C74.923 64.1676 75.2677 64.383 75.5662 64.6754C75.8678 64.9678 76.1048 65.3402 76.2772 65.7926C76.4495 66.242 76.5357 66.7775 76.5357 67.3991V67.9116H70.7235V66.7852H74.9338C74.9307 66.4651 74.8614 66.1804 74.726 65.9311C74.5906 65.6787 74.4013 65.4802 74.1582 65.3356C73.9181 65.1909 73.6381 65.1186 73.318 65.1186C72.9764 65.1186 72.6763 65.2017 72.4178 65.3679C72.1593 65.531 71.9577 65.7464 71.813 66.0142C71.6715 66.2789 71.5991 66.5697 71.5961 66.8867V67.87C71.5961 68.2824 71.6715 68.6364 71.8223 68.9318C71.9731 69.2242 72.1839 69.4489 72.4547 69.6058C72.7256 69.7597 73.0426 69.8366 73.4057 69.8366C73.6489 69.8366 73.8689 69.8028 74.0659 69.7351C74.2628 69.6643 74.4337 69.5612 74.5783 69.4258C74.723 69.2904 74.8322 69.1226 74.9061 68.9226L76.4664 69.098C76.368 69.5104 76.1802 69.8705 75.9032 70.1783C75.6293 70.483 75.2785 70.7199 74.8507 70.8892C74.4229 71.0554 73.9335 71.1385 73.3826 71.1385ZM77.9495 73.6591V63.9091H79.593V65.0817H79.6899C79.7761 64.9093 79.8976 64.7262 80.0546 64.5323C80.2116 64.3353 80.4239 64.1676 80.6917 64.0291C80.9594 63.8875 81.301 63.8168 81.7165 63.8168C82.2644 63.8168 82.7583 63.9568 83.1984 64.2369C83.6416 64.5138 83.9925 64.9247 84.251 65.4695C84.5126 66.0111 84.6434 66.6759 84.6434 67.4638C84.6434 68.2424 84.5157 68.9041 84.2602 69.4489C84.0048 69.9936 83.657 70.4091 83.2169 70.6953C82.7768 70.9815 82.2782 71.1246 81.7211 71.1246C81.3149 71.1246 80.9779 71.0569 80.7101 70.9215C80.4424 70.7861 80.2269 70.623 80.0638 70.4322C79.9038 70.2383 79.7791 70.0552 79.6899 69.8828H79.6206V73.6591H77.9495ZM79.5883 67.4545C79.5883 67.9131 79.653 68.3147 79.7822 68.6594C79.9146 69.0041 80.1038 69.2734 80.3501 69.4673C80.5993 69.6581 80.901 69.7536 81.2549 69.7536C81.6242 69.7536 81.9335 69.6551 82.1828 69.4581C82.4321 69.258 82.6198 68.9857 82.746 68.641C82.8753 68.2932 82.9399 67.8977 82.9399 67.4545C82.9399 67.0144 82.8768 66.6236 82.7506 66.282C82.6244 65.9403 82.4367 65.6726 82.1874 65.4787C81.9381 65.2848 81.6273 65.1879 81.2549 65.1879C80.8979 65.1879 80.5947 65.2817 80.3454 65.4695C80.0961 65.6572 79.9069 65.9203 79.7776 66.2589C79.6514 66.5974 79.5883 66.996 79.5883 67.4545ZM91.6789 65.7834L90.1555 65.9496C90.1124 65.7957 90.037 65.651 89.9292 65.5156C89.8246 65.3802 89.683 65.271 89.5045 65.1879C89.326 65.1048 89.1075 65.0632 88.849 65.0632C88.5012 65.0632 88.2088 65.1386 87.9719 65.2894C87.738 65.4402 87.6225 65.6357 87.6256 65.8757C87.6225 66.0819 87.6979 66.2496 87.8518 66.3789C88.0088 66.5082 88.2673 66.6143 88.6274 66.6974L89.8369 66.956C90.5078 67.1006 91.0064 67.3299 91.3327 67.6438C91.662 67.9577 91.8282 68.3686 91.8312 68.8764C91.8282 69.3227 91.6974 69.7166 91.4388 70.0582C91.1834 70.3968 90.8279 70.6615 90.3724 70.8523C89.9169 71.0431 89.3937 71.1385 88.8028 71.1385C87.9349 71.1385 87.2363 70.9569 86.7069 70.5938C86.1776 70.2275 85.8621 69.7182 85.7606 69.0657L87.3902 68.9087C87.464 69.2288 87.621 69.4704 87.8611 69.6335C88.1011 69.7966 88.4135 69.8782 88.7982 69.8782C89.1952 69.8782 89.5138 69.7966 89.7538 69.6335C89.997 69.4704 90.1185 69.2688 90.1185 69.0288C90.1185 68.8256 90.04 68.6579 89.8831 68.5256C89.7292 68.3932 89.4891 68.2917 89.1629 68.2209L87.9534 67.967C87.2732 67.8254 86.77 67.5869 86.4438 67.2514C86.1176 66.9129 85.956 66.4851 85.9591 65.968C85.956 65.531 86.0745 65.1525 86.3145 64.8324C86.5577 64.5092 86.8947 64.2599 87.3256 64.0845C87.7595 63.906 88.2596 63.8168 88.8259 63.8168C89.6569 63.8168 90.3109 63.9937 90.7879 64.3477C91.268 64.7016 91.565 65.1802 91.6789 65.7834ZM99.5269 71.1385C98.819 71.1385 98.2112 70.9831 97.7034 70.6722C97.1987 70.3614 96.8093 69.9321 96.5354 69.3842C96.2646 68.8333 96.1292 68.1993 96.1292 67.4822C96.1292 66.7621 96.2677 66.1265 96.5447 65.5756C96.8216 65.0217 97.2125 64.5908 97.7172 64.283C98.2251 63.9722 98.8252 63.8168 99.5177 63.8168C100.093 63.8168 100.603 63.9229 101.046 64.1353C101.492 64.3446 101.847 64.6416 102.112 65.0263C102.377 65.4079 102.528 65.8542 102.565 66.3651H100.967C100.903 66.0234 100.749 65.7388 100.506 65.511C100.266 65.2802 99.9439 65.1648 99.5407 65.1648C99.1991 65.1648 98.8991 65.2571 98.6405 65.4418C98.382 65.6233 98.1804 65.8849 98.0358 66.2266C97.8942 66.5682 97.8234 66.9775 97.8234 67.4545C97.8234 67.9377 97.8942 68.3532 98.0358 68.701C98.1773 69.0457 98.3759 69.3119 98.6313 69.4996C98.8898 69.6843 99.193 69.7766 99.5407 69.7766C99.787 69.7766 100.007 69.7305 100.201 69.6381C100.398 69.5427 100.563 69.4058 100.695 69.2273C100.827 69.0488 100.918 68.8318 100.967 68.5763H102.565C102.525 69.078 102.377 69.5227 102.121 69.9105C101.866 70.2952 101.518 70.5968 101.078 70.8153C100.638 71.0308 100.121 71.1385 99.5269 71.1385ZM107.03 71.1385C106.337 71.1385 105.737 70.9862 105.229 70.6815C104.722 70.3768 104.328 69.9505 104.048 69.4027C103.771 68.8549 103.632 68.2147 103.632 67.4822C103.632 66.7498 103.771 66.1081 104.048 65.5572C104.328 65.0063 104.722 64.5785 105.229 64.2738C105.737 63.9691 106.337 63.8168 107.03 63.8168C107.722 63.8168 108.322 63.9691 108.83 64.2738C109.338 64.5785 109.73 65.0063 110.007 65.5572C110.288 66.1081 110.428 66.7498 110.428 67.4822C110.428 68.2147 110.288 68.8549 110.007 69.4027C109.73 69.9505 109.338 70.3768 108.83 70.6815C108.322 70.9862 107.722 71.1385 107.03 71.1385ZM107.039 69.7997C107.415 69.7997 107.728 69.6966 107.981 69.4904C108.233 69.2811 108.421 69.0011 108.544 68.6502C108.67 68.2994 108.733 67.9085 108.733 67.4776C108.733 67.0437 108.67 66.6513 108.544 66.3004C108.421 65.9465 108.233 65.6649 107.981 65.4556C107.728 65.2463 107.415 65.1417 107.039 65.1417C106.654 65.1417 106.334 65.2463 106.079 65.4556C105.826 65.6649 105.637 65.9465 105.511 66.3004C105.388 66.6513 105.326 67.0437 105.326 67.4776C105.326 67.9085 105.388 68.2994 105.511 68.6502C105.637 69.0011 105.826 69.2811 106.079 69.4904C106.334 69.6966 106.654 69.7997 107.039 69.7997ZM111.846 71V63.9091H113.443V65.114H113.526C113.674 64.7077 113.919 64.3907 114.26 64.163C114.602 63.9322 115.01 63.8168 115.484 63.8168C115.964 63.8168 116.369 63.9337 116.698 64.1676C117.03 64.3984 117.264 64.7139 117.4 65.114H117.473C117.63 64.7201 117.895 64.4061 118.267 64.1722C118.643 63.9353 119.088 63.8168 119.602 63.8168C120.254 63.8168 120.787 64.023 121.199 64.4354C121.611 64.8478 121.818 65.4495 121.818 66.2404V71H120.142V66.4989C120.142 66.0588 120.025 65.7372 119.791 65.5341C119.557 65.3279 119.271 65.2248 118.932 65.2248C118.529 65.2248 118.214 65.351 117.986 65.6033C117.761 65.8526 117.649 66.1773 117.649 66.5774V71H116.01V66.4297C116.01 66.0634 115.899 65.7711 115.678 65.5526C115.459 65.334 115.173 65.2248 114.819 65.2248C114.579 65.2248 114.36 65.2863 114.163 65.4094C113.966 65.5295 113.81 65.7003 113.693 65.9219C113.576 66.1404 113.517 66.3958 113.517 66.6882V71H111.846ZM123.513 73.6591V63.9091H125.156V65.0817H125.253C125.34 64.9093 125.461 64.7262 125.618 64.5323C125.775 64.3353 125.987 64.1676 126.255 64.0291C126.523 63.8875 126.865 63.8168 127.28 63.8168C127.828 63.8168 128.322 63.9568 128.762 64.2369C129.205 64.5138 129.556 64.9247 129.814 65.4695C130.076 66.0111 130.207 66.6759 130.207 67.4638C130.207 68.2424 130.079 68.9041 129.824 69.4489C129.568 69.9936 129.22 70.4091 128.78 70.6953C128.34 70.9815 127.842 71.1246 127.285 71.1246C126.878 71.1246 126.541 71.0569 126.274 70.9215C126.006 70.7861 125.79 70.623 125.627 70.4322C125.467 70.2383 125.343 70.0552 125.253 69.8828H125.184V73.6591H123.513ZM125.152 67.4545C125.152 67.9131 125.216 68.3147 125.346 68.6594C125.478 69.0041 125.667 69.2734 125.914 69.4673C126.163 69.6581 126.464 69.7536 126.818 69.7536C127.188 69.7536 127.497 69.6551 127.746 69.4581C127.996 69.258 128.183 68.9857 128.309 68.641C128.439 68.2932 128.503 67.8977 128.503 67.4545C128.503 67.0144 128.44 66.6236 128.314 66.282C128.188 65.9403 128 65.6726 127.751 65.4787C127.502 65.2848 127.191 65.1879 126.818 65.1879C126.461 65.1879 126.158 65.2817 125.909 65.4695C125.66 65.6572 125.47 65.9203 125.341 66.2589C125.215 66.5974 125.152 66.996 125.152 67.4545ZM133.309 61.5455V71H131.638V61.5455H133.309ZM138.167 71.1385C137.456 71.1385 136.842 70.9908 136.325 70.6953C135.811 70.3968 135.415 69.9751 135.138 69.4304C134.861 68.8826 134.723 68.2378 134.723 67.4961C134.723 66.7667 134.861 66.1265 135.138 65.5756C135.418 65.0217 135.809 64.5908 136.311 64.283C136.813 63.9722 137.402 63.8168 138.079 63.8168C138.516 63.8168 138.929 63.8875 139.316 64.0291C139.707 64.1676 140.052 64.383 140.35 64.6754C140.652 64.9678 140.889 65.3402 141.061 65.7926C141.234 66.242 141.32 66.7775 141.32 67.3991V67.9116H135.508V66.7852H139.718C139.715 66.4651 139.646 66.1804 139.51 65.9311C139.375 65.6787 139.186 65.4802 138.942 65.3356C138.702 65.1909 138.422 65.1186 138.102 65.1186C137.761 65.1186 137.46 65.2017 137.202 65.3679C136.943 65.531 136.742 65.7464 136.597 66.0142C136.456 66.2789 136.383 66.5697 136.38 66.8867V67.87C136.38 68.2824 136.456 68.6364 136.606 68.9318C136.757 69.2242 136.968 69.4489 137.239 69.6058C137.51 69.7597 137.827 69.8366 138.19 69.8366C138.433 69.8366 138.653 69.8028 138.85 69.7351C139.047 69.6643 139.218 69.5612 139.362 69.4258C139.507 69.2904 139.616 69.1226 139.69 68.9226L141.251 69.098C141.152 69.5104 140.964 69.8705 140.687 70.1783C140.414 70.483 140.063 70.7199 139.635 70.8892C139.207 71.0554 138.718 71.1385 138.167 71.1385ZM146.275 63.9091V65.2017H142.198V63.9091H146.275ZM143.205 62.2102H144.876V68.8672C144.876 69.0919 144.91 69.2642 144.977 69.3842C145.048 69.5012 145.14 69.5812 145.254 69.6243C145.368 69.6674 145.494 69.6889 145.633 69.6889C145.737 69.6889 145.833 69.6812 145.919 69.6658C146.008 69.6504 146.076 69.6366 146.122 69.6243L146.404 70.9308C146.315 70.9615 146.187 70.9954 146.021 71.0323C145.857 71.0692 145.657 71.0908 145.42 71.0969C145.002 71.1093 144.625 71.0462 144.289 70.9077C143.954 70.7661 143.688 70.5476 143.491 70.2521C143.297 69.9567 143.201 69.5874 143.205 69.1442V62.2102ZM150.735 71.1385C150.024 71.1385 149.41 70.9908 148.893 70.6953C148.379 70.3968 147.984 69.9751 147.707 69.4304C147.43 68.8826 147.291 68.2378 147.291 67.4961C147.291 66.7667 147.43 66.1265 147.707 65.5756C147.987 65.0217 148.378 64.5908 148.879 64.283C149.381 63.9722 149.97 63.8168 150.647 63.8168C151.084 63.8168 151.497 63.8875 151.885 64.0291C152.276 64.1676 152.62 64.383 152.919 64.6754C153.22 64.9678 153.457 65.3402 153.63 65.7926C153.802 66.242 153.888 66.7775 153.888 67.3991V67.9116H148.076V66.7852H152.286C152.283 66.4651 152.214 66.1804 152.079 65.9311C151.943 65.6787 151.754 65.4802 151.511 65.3356C151.271 65.1909 150.991 65.1186 150.671 65.1186C150.329 65.1186 150.029 65.2017 149.77 65.3679C149.512 65.531 149.31 65.7464 149.166 66.0142C149.024 66.2789 148.952 66.5697 148.949 66.8867V67.87C148.949 68.2824 149.024 68.6364 149.175 68.9318C149.326 69.2242 149.536 69.4489 149.807 69.6058C150.078 69.7597 150.395 69.8366 150.758 69.8366C151.001 69.8366 151.221 69.8028 151.418 69.7351C151.615 69.6643 151.786 69.5612 151.931 69.4258C152.075 69.2904 152.185 69.1226 152.259 68.9226L153.819 69.098C153.72 69.5104 153.533 69.8705 153.256 70.1783C152.982 70.483 152.631 70.7199 152.203 70.8892C151.775 71.0554 151.286 71.1385 150.735 71.1385ZM157.933 71.1246C157.376 71.1246 156.878 70.9815 156.438 70.6953C155.998 70.4091 155.65 69.9936 155.394 69.4489C155.139 68.9041 155.011 68.2424 155.011 67.4638C155.011 66.6759 155.14 66.0111 155.399 65.4695C155.661 64.9247 156.013 64.5138 156.456 64.2369C156.899 63.9568 157.393 63.8168 157.938 63.8168C158.354 63.8168 158.695 63.8875 158.963 64.0291C159.231 64.1676 159.443 64.3353 159.6 64.5323C159.757 64.7262 159.878 64.9093 159.965 65.0817H160.034V61.5455H161.71V71H160.066V69.8828H159.965C159.878 70.0552 159.754 70.2383 159.591 70.4322C159.428 70.623 159.212 70.7861 158.944 70.9215C158.677 71.0569 158.34 71.1246 157.933 71.1246ZM158.4 69.7536C158.754 69.7536 159.055 69.6581 159.305 69.4673C159.554 69.2734 159.743 69.0041 159.872 68.6594C160.002 68.3147 160.066 67.9131 160.066 67.4545C160.066 66.996 160.002 66.5974 159.872 66.2589C159.746 65.9203 159.558 65.6572 159.309 65.4695C159.063 65.2817 158.76 65.1879 158.4 65.1879C158.027 65.1879 157.716 65.2848 157.467 65.4787C157.218 65.6726 157.03 65.9403 156.904 66.282C156.778 66.6236 156.715 67.0144 156.715 67.4545C156.715 67.8977 156.778 68.2932 156.904 68.641C157.033 68.9857 157.222 69.258 157.472 69.4581C157.724 69.6551 158.033 69.7536 158.4 69.7536Z" fill="white"/>
<g clip-path="url(#clip0_1652_20189)">
<path d="M263 71.8327C266.222 71.8327 268.834 69.221 268.834 65.9993C268.834 62.7777 266.222 60.166 263 60.166C259.779 60.166 257.167 62.7777 257.167 65.9993C257.167 69.221 259.779 71.8327 263 71.8327Z" stroke="white" stroke-opacity="0.8" stroke-width="2" stroke-linecap="round" stroke-linejoin="round"/>
<path d="M263 62.5V66L265.333 67.1667" stroke="white" stroke-opacity="0.8" stroke-width="2" stroke-linecap="round" stroke-linejoin="round"/>
</g>
<path d="M278.173 71.1293C277.564 71.1293 277.021 71.0246 276.544 70.8153C276.07 70.6061 275.693 70.3152 275.413 69.9428C275.136 69.5674 274.985 69.1319 274.96 68.6364H276.124C276.148 68.9411 276.253 69.2042 276.438 69.4258C276.622 69.6443 276.864 69.8136 277.162 69.9336C277.461 70.0536 277.792 70.1136 278.155 70.1136C278.561 70.1136 278.921 70.0429 279.235 69.9013C279.549 69.7597 279.795 69.5627 279.974 69.3104C280.152 69.058 280.241 68.7656 280.241 68.4332C280.241 68.0855 280.155 67.7792 279.983 67.5146C279.811 67.2468 279.558 67.0375 279.226 66.8867C278.893 66.7359 278.487 66.6605 278.007 66.6605H277.25V65.6449H278.007C278.383 65.6449 278.712 65.5772 278.995 65.4418C279.281 65.3063 279.504 65.1155 279.664 64.8693C279.828 64.6231 279.909 64.3338 279.909 64.0014C279.909 63.6813 279.838 63.4028 279.697 63.1658C279.555 62.9289 279.355 62.7442 279.097 62.6119C278.841 62.4795 278.54 62.4134 278.192 62.4134C277.866 62.4134 277.558 62.4734 277.268 62.5934C276.982 62.7103 276.748 62.8812 276.567 63.1058C276.385 63.3274 276.287 63.5952 276.271 63.9091H275.163C275.182 63.4136 275.331 62.9796 275.611 62.6072C275.891 62.2318 276.257 61.9394 276.71 61.7301C277.165 61.5208 277.665 61.4162 278.21 61.4162C278.795 61.4162 279.297 61.5347 279.715 61.7717C280.134 62.0056 280.455 62.3149 280.68 62.6996C280.905 63.0843 281.017 63.4998 281.017 63.946C281.017 64.4785 280.877 64.9324 280.597 65.3079C280.32 65.6834 279.943 65.9434 279.466 66.0881V66.1619C280.063 66.2604 280.529 66.5143 280.865 66.9237C281.2 67.3299 281.368 67.8331 281.368 68.4332C281.368 68.9472 281.228 69.4089 280.948 69.8182C280.671 70.2244 280.292 70.5445 279.812 70.7784C279.332 71.0123 278.786 71.1293 278.173 71.1293ZM286.931 71V63.9091H287.983V65.017H288.076C288.223 64.6385 288.462 64.3446 288.791 64.1353C289.121 63.9229 289.516 63.8168 289.978 63.8168C290.445 63.8168 290.835 63.9229 291.146 64.1353C291.46 64.3446 291.704 64.6385 291.88 65.017H291.953C292.135 64.6508 292.407 64.36 292.771 64.1445C293.134 63.926 293.569 63.8168 294.077 63.8168C294.711 63.8168 295.23 64.0153 295.633 64.4123C296.036 64.8062 296.238 65.4202 296.238 66.2543V71H295.148V66.2543C295.148 65.7311 295.005 65.3571 294.719 65.1325C294.433 64.9078 294.096 64.7955 293.708 64.7955C293.209 64.7955 292.823 64.9463 292.549 65.2479C292.275 65.5464 292.138 65.925 292.138 66.3835V71H291.03V66.1435C291.03 65.7403 290.899 65.4156 290.638 65.1694C290.376 64.9201 290.039 64.7955 289.627 64.7955C289.344 64.7955 289.079 64.8709 288.833 65.0217C288.59 65.1725 288.393 65.3817 288.242 65.6495C288.094 65.9142 288.02 66.2204 288.02 66.5682V71H286.931ZM298.23 71V63.9091H299.319V71H298.23ZM298.784 62.7273C298.571 62.7273 298.388 62.6549 298.234 62.5103C298.083 62.3656 298.008 62.1918 298.008 61.9886C298.008 61.7855 298.083 61.6116 298.234 61.467C298.388 61.3223 298.571 61.25 298.784 61.25C298.996 61.25 299.177 61.3223 299.328 61.467C299.482 61.6116 299.559 61.7855 299.559 61.9886C299.559 62.1918 299.482 62.3656 299.328 62.5103C299.177 62.6549 298.996 62.7273 298.784 62.7273ZM302.404 66.7344V71H301.315V63.9091H302.367V65.017H302.459C302.626 64.657 302.878 64.3677 303.217 64.1491C303.555 63.9276 303.992 63.8168 304.528 63.8168C305.008 63.8168 305.428 63.9152 305.788 64.1122C306.148 64.3061 306.428 64.6016 306.628 64.9986C306.828 65.3925 306.928 65.8911 306.928 66.4943V71H305.839V66.5682C305.839 66.0111 305.694 65.5772 305.405 65.2663C305.115 64.9524 304.718 64.7955 304.214 64.7955C303.866 64.7955 303.555 64.8709 303.281 65.0217C303.01 65.1725 302.796 65.3925 302.639 65.6818C302.483 65.9711 302.404 66.322 302.404 66.7344Z" fill="white" fill-opacity="0.8"/>
<rect x="20" y="82" width="288" height="6" rx="3" fill="white" fill-opacity="0.2"/>
<rect x="20" y="82" width="128" height="6" rx="3" fill="white"/>
<defs>
<linearGradient id="paint0_linear_1652_20189" x1="15.5" y1="1.15299e-05" x2="251.583" y2="171.789" gradientUnits="userSpaceOnUse">
<stop stop-color="#766CB6"/>
<stop offset="1" stop-color="#230F5C"/>
</linearGradient>
<!-- Metallic sweep gradient - concentrated highlight band -->
<linearGradient id="metallicStroke" gradientUnits="userSpaceOnUse" x1="0" y1="54" x2="328" y2="54">
<stop offset="0" stop-color="#5d5657" stop-opacity="0.4"/>
<stop offset="0.3" stop-color="#5d5657" stop-opacity="0.4"/>
<stop offset="0.42" stop-color="#c9c5c5"/>
<stop offset="0.5" stop-color="#ffffff"/>
<stop offset="0.58" stop-color="#c9c5c5"/>
<stop offset="0.7" stop-color="#5d5657" stop-opacity="0.4"/>
<stop offset="1" stop-color="#5d5657" stop-opacity="0.4"/>
<animateTransform attributeName="gradientTransform" type="translate" from="-328 0" to="328 0" dur="2.5s" repeatCount="2" fill="freeze"/>
</linearGradient>
<clipPath id="clip0_1652_20189">
<rect width="14" height="14" fill="white" transform="translate(256 59)"/>
</clipPath>
</defs>
</svg>
