<svg width="362" height="142" viewBox="0 0 362 142" fill="none" xmlns="http://www.w3.org/2000/svg">
<g filter="url(#filter0_d_1652_20148)">
<path d="M17 29C17 22.3726 22.3726 17 29 17H333C339.627 17 345 22.3726 345 29V113C345 119.627 339.627 125 333 125H29C22.3726 125 17 119.627 17 113V29Z" fill="url(#paint0_linear_1652_20148)" fill-opacity="0.65" shape-rendering="crispEdges"/>
<path d="M40.3942 55H37.4283L41.9474 41.9091H45.5142L50.027 55H47.0611L43.782 44.9006H43.6797L40.3942 55ZM40.2088 49.8544H47.2145V52.0149H40.2088V49.8544ZM55.5305 55.1918C54.5249 55.1918 53.6598 54.9787 52.9354 54.5526C52.2152 54.1222 51.6612 53.5256 51.2734 52.7628C50.8899 52 50.6982 51.1222 50.6982 50.1293C50.6982 49.1236 50.892 48.2415 51.2798 47.483C51.6719 46.7202 52.228 46.1257 52.9482 45.6996C53.6683 45.2692 54.5249 45.054 55.5178 45.054C56.3743 45.054 57.1243 45.2095 57.7678 45.5206C58.4112 45.8317 58.9205 46.2685 59.2955 46.831C59.6705 47.3935 59.8771 48.054 59.9155 48.8125H57.3459C57.2734 48.3224 57.0817 47.9283 56.7706 47.63C56.4638 47.3274 56.0611 47.1761 55.5625 47.1761C55.1406 47.1761 54.772 47.2912 54.4567 47.5213C54.1456 47.7472 53.9027 48.0774 53.728 48.5121C53.5533 48.9467 53.4659 49.473 53.4659 50.0909C53.4659 50.7173 53.5511 51.25 53.7216 51.6889C53.8963 52.1278 54.1413 52.4624 54.4567 52.6925C54.772 52.9226 55.1406 53.0376 55.5625 53.0376C55.8736 53.0376 56.1527 52.9737 56.3999 52.8459C56.6513 52.718 56.858 52.5327 57.0199 52.2898C57.1861 52.0426 57.2947 51.7464 57.3459 51.4013H59.9155C59.8729 52.1513 59.6683 52.8118 59.3018 53.3828C58.9396 53.9496 58.4389 54.3928 57.7997 54.7124C57.1605 55.032 56.4041 55.1918 55.5305 55.1918ZM66.8812 45.1818V47.2273H60.9686V45.1818H66.8812ZM62.3109 42.8295H65.0339V51.983C65.0339 52.2344 65.0723 52.4304 65.149 52.571C65.2257 52.7074 65.3322 52.8033 65.4686 52.8587C65.6092 52.9141 65.7711 52.9418 65.9544 52.9418C66.0822 52.9418 66.21 52.9311 66.3379 52.9098C66.4657 52.8842 66.5637 52.8651 66.6319 52.8523L67.0602 54.8786C66.9238 54.9212 66.7321 54.9702 66.4849 55.0256C66.2377 55.0852 65.9373 55.1214 65.5836 55.1342C64.9274 55.1598 64.3521 55.0724 63.8578 54.8722C63.3677 54.6719 62.9863 54.3608 62.7136 53.9389C62.4409 53.517 62.3066 52.9844 62.3109 52.3409V42.8295ZM68.655 55V45.1818H71.378V55H68.655ZM70.0229 43.9162C69.6181 43.9162 69.2708 43.782 68.981 43.5135C68.6955 43.2408 68.5527 42.9148 68.5527 42.5355C68.5527 42.1605 68.6955 41.8388 68.981 41.5703C69.2708 41.2976 69.6181 41.1612 70.0229 41.1612C70.4277 41.1612 70.7729 41.2976 71.0584 41.5703C71.3482 41.8388 71.4931 42.1605 71.4931 42.5355C71.4931 42.9148 71.3482 43.2408 71.0584 43.5135C70.7729 43.782 70.4277 43.9162 70.0229 43.9162ZM82.7127 45.1818L79.2802 55H76.212L72.7795 45.1818H75.6559L77.695 52.2067H77.7972L79.8299 45.1818H82.7127ZM86.6422 55.1854C86.0158 55.1854 85.4576 55.0767 84.9675 54.8594C84.4775 54.6378 84.0897 54.3118 83.8042 53.8814C83.5229 53.4467 83.3823 52.9055 83.3823 52.2578C83.3823 51.7124 83.4824 51.2543 83.6827 50.8835C83.883 50.5128 84.1557 50.2145 84.5009 49.9886C84.8461 49.7628 85.2381 49.5923 85.677 49.4773C86.1202 49.3622 86.5847 49.2812 87.0705 49.2344C87.6415 49.1747 88.1017 49.1193 88.4512 49.0682C88.8006 49.0128 89.0542 48.9318 89.2118 48.8253C89.3695 48.7187 89.4483 48.5611 89.4483 48.3523V48.3139C89.4483 47.9091 89.3205 47.5959 89.0648 47.3743C88.8134 47.1527 88.4554 47.0419 87.9909 47.0419C87.5009 47.0419 87.111 47.1506 86.8212 47.3679C86.5314 47.581 86.3397 47.8494 86.2459 48.1733L83.7275 47.9688C83.8553 47.3722 84.1067 46.8565 84.4817 46.4219C84.8567 45.983 85.3404 45.6463 85.9327 45.4119C86.5293 45.1733 87.2196 45.054 88.0037 45.054C88.5492 45.054 89.0712 45.1179 89.5698 45.2457C90.0726 45.3736 90.5179 45.5717 90.9057 45.8402C91.2978 46.1087 91.6067 46.4538 91.8326 46.8757C92.0584 47.2933 92.1713 47.794 92.1713 48.3778V55H89.589V53.6385H89.5123C89.3546 53.9453 89.1436 54.2159 88.8794 54.4503C88.6152 54.6804 88.2978 54.8615 87.927 54.9936C87.5563 55.1214 87.128 55.1854 86.6422 55.1854ZM87.4221 53.3061C87.8226 53.3061 88.1763 53.2273 88.4831 53.0696C88.79 52.9077 89.0307 52.6903 89.2054 52.4176C89.3801 52.1449 89.4675 51.8359 89.4675 51.4908V50.4489C89.3823 50.5043 89.2651 50.5554 89.1159 50.6023C88.9711 50.6449 88.807 50.6854 88.6238 50.7237C88.4405 50.7578 88.2573 50.7898 88.074 50.8196C87.8908 50.8452 87.7246 50.8686 87.5755 50.8899C87.2559 50.9368 86.9767 51.0114 86.7381 51.1136C86.4995 51.2159 86.3141 51.3544 86.182 51.5291C86.0499 51.6996 85.9838 51.9126 85.9838 52.1683C85.9838 52.5391 86.1181 52.8224 86.3865 53.0185C86.6593 53.2102 87.0044 53.3061 87.4221 53.3061ZM99.5062 45.1818V47.2273H93.5936V45.1818H99.5062ZM94.9359 42.8295H97.6589V51.983C97.6589 52.2344 97.6973 52.4304 97.774 52.571C97.8507 52.7074 97.9572 52.8033 98.0936 52.8587C98.2342 52.9141 98.3961 52.9418 98.5794 52.9418C98.7072 52.9418 98.835 52.9311 98.9629 52.9098C99.0907 52.8842 99.1887 52.8651 99.2569 52.8523L99.6852 54.8786C99.5488 54.9212 99.3571 54.9702 99.1099 55.0256C98.8627 55.0852 98.5623 55.1214 98.2086 55.1342C97.5524 55.1598 96.9771 55.0724 96.4828 54.8722C95.9927 54.6719 95.6113 54.3608 95.3386 53.9389C95.0659 53.517 94.9316 52.9844 94.9359 52.3409V42.8295ZM105.649 55.1918C104.639 55.1918 103.77 54.9872 103.041 54.5781C102.317 54.1648 101.758 53.581 101.366 52.8267C100.974 52.0682 100.778 51.1712 100.778 50.1357C100.778 49.1257 100.974 48.2393 101.366 47.4766C101.758 46.7138 102.31 46.1193 103.022 45.6932C103.738 45.267 104.577 45.054 105.54 45.054C106.188 45.054 106.791 45.1584 107.349 45.3672C107.912 45.5717 108.402 45.8807 108.819 46.294C109.241 46.7074 109.569 47.2273 109.804 47.8537C110.038 48.4759 110.155 49.2045 110.155 50.0398V50.7876H101.865V49.1001H107.592C107.592 48.7081 107.507 48.3608 107.336 48.0582C107.166 47.7557 106.93 47.5192 106.627 47.3487C106.329 47.174 105.981 47.0866 105.585 47.0866C105.172 47.0866 104.805 47.1825 104.486 47.3743C104.17 47.5618 103.923 47.8153 103.744 48.1349C103.565 48.4503 103.474 48.8018 103.469 49.1896V50.794C103.469 51.2798 103.559 51.6996 103.738 52.0533C103.921 52.407 104.179 52.6797 104.511 52.8714C104.844 53.0632 105.238 53.1591 105.694 53.1591C105.996 53.1591 106.273 53.1165 106.525 53.0312C106.776 52.946 106.991 52.8182 107.17 52.6477C107.349 52.4773 107.486 52.2685 107.579 52.0213L110.098 52.1875C109.97 52.7926 109.708 53.321 109.312 53.7727C108.92 54.2202 108.412 54.5696 107.79 54.821C107.172 55.0682 106.459 55.1918 105.649 55.1918ZM117.779 58.6818C117.434 58.6818 117.11 58.6541 116.808 58.5987C116.51 58.5476 116.262 58.4815 116.066 58.4006L116.68 56.3679C117 56.4659 117.287 56.5192 117.543 56.5277C117.803 56.5362 118.027 56.4766 118.214 56.3487C118.406 56.2209 118.561 56.0036 118.681 55.6967L118.841 55.2812L115.319 45.1818H118.182L120.215 52.392H120.317L122.369 45.1818H125.252L121.436 56.0611C121.252 56.5895 121.003 57.0497 120.688 57.4418C120.377 57.8381 119.983 58.1428 119.505 58.3558C119.028 58.5732 118.453 58.6818 117.779 58.6818ZM130.765 55.1918C129.772 55.1918 128.913 54.9808 128.189 54.5589C127.469 54.1328 126.913 53.5405 126.521 52.782C126.129 52.0192 125.933 51.1349 125.933 50.1293C125.933 49.1151 126.129 48.2287 126.521 47.4702C126.913 46.7074 127.469 46.1151 128.189 45.6932C128.913 45.267 129.772 45.054 130.765 45.054C131.758 45.054 132.614 45.267 133.335 45.6932C134.059 46.1151 134.617 46.7074 135.009 47.4702C135.401 48.2287 135.597 49.1151 135.597 50.1293C135.597 51.1349 135.401 52.0192 135.009 52.782C134.617 53.5405 134.059 54.1328 133.335 54.5589C132.614 54.9808 131.758 55.1918 130.765 55.1918ZM130.778 53.0824C131.229 53.0824 131.607 52.9545 131.909 52.6989C132.212 52.4389 132.44 52.0852 132.593 51.6378C132.751 51.1903 132.83 50.6811 132.83 50.1101C132.83 49.5391 132.751 49.0298 132.593 48.5824C132.44 48.1349 132.212 47.7812 131.909 47.5213C131.607 47.2614 131.229 47.1314 130.778 47.1314C130.322 47.1314 129.938 47.2614 129.627 47.5213C129.32 47.7812 129.088 48.1349 128.93 48.5824C128.777 49.0298 128.7 49.5391 128.7 50.1101C128.7 50.6811 128.777 51.1903 128.93 51.6378C129.088 52.0852 129.32 52.4389 129.627 52.6989C129.938 52.9545 130.322 53.0824 130.778 53.0824ZM143.664 50.8196V45.1818H146.387V55H143.773V53.2166H143.67C143.449 53.7919 143.08 54.2543 142.565 54.6037C142.053 54.9531 141.429 55.1278 140.692 55.1278C140.036 55.1278 139.458 54.9787 138.96 54.6804C138.461 54.3821 138.071 53.9581 137.79 53.4084C137.513 52.8587 137.372 52.2003 137.368 51.4332V45.1818H140.091V50.9474C140.095 51.527 140.251 51.9851 140.558 52.3217C140.864 52.6584 141.276 52.8267 141.791 52.8267C142.119 52.8267 142.426 52.7521 142.712 52.603C142.997 52.4496 143.227 52.2237 143.402 51.9254C143.581 51.6271 143.668 51.2585 143.664 50.8196ZM148.565 55V45.1818H151.205V46.8949H151.307C151.486 46.2855 151.787 45.8253 152.209 45.5142C152.631 45.1989 153.116 45.0412 153.666 45.0412C153.802 45.0412 153.949 45.0497 154.107 45.0668C154.265 45.0838 154.403 45.1072 154.523 45.1371V47.5533C154.395 47.5149 154.218 47.4808 153.992 47.451C153.766 47.4212 153.559 47.4062 153.372 47.4062C152.971 47.4062 152.613 47.4936 152.298 47.6683C151.987 47.8388 151.74 48.0774 151.557 48.3842C151.378 48.6911 151.288 49.0447 151.288 49.4453V55H148.565ZM162.896 55.1854C162.27 55.1854 161.711 55.0767 161.221 54.8594C160.731 54.6378 160.344 54.3118 160.058 53.8814C159.777 53.4467 159.636 52.9055 159.636 52.2578C159.636 51.7124 159.736 51.2543 159.937 50.8835C160.137 50.5128 160.41 50.2145 160.755 49.9886C161.1 49.7628 161.492 49.5923 161.931 49.4773C162.374 49.3622 162.839 49.2812 163.324 49.2344C163.895 49.1747 164.356 49.1193 164.705 49.0682C165.055 49.0128 165.308 48.9318 165.466 48.8253C165.623 48.7187 165.702 48.5611 165.702 48.3523V48.3139C165.702 47.9091 165.574 47.5959 165.319 47.3743C165.067 47.1527 164.709 47.0419 164.245 47.0419C163.755 47.0419 163.365 47.1506 163.075 47.3679C162.785 47.581 162.594 47.8494 162.5 48.1733L159.981 47.9688C160.109 47.3722 160.361 46.8565 160.736 46.4219C161.111 45.983 161.594 45.6463 162.187 45.4119C162.783 45.1733 163.474 45.054 164.258 45.054C164.803 45.054 165.325 45.1179 165.824 45.2457C166.327 45.3736 166.772 45.5717 167.16 45.8402C167.552 46.1087 167.861 46.4538 168.086 46.8757C168.312 47.2933 168.425 47.794 168.425 48.3778V55H165.843V53.6385H165.766C165.608 53.9453 165.398 54.2159 165.133 54.4503C164.869 54.6804 164.552 54.8615 164.181 54.9936C163.81 55.1214 163.382 55.1854 162.896 55.1854ZM163.676 53.3061C164.077 53.3061 164.43 53.2273 164.737 53.0696C165.044 52.9077 165.285 52.6903 165.459 52.4176C165.634 52.1449 165.721 51.8359 165.721 51.4908V50.4489C165.636 50.5043 165.519 50.5554 165.37 50.6023C165.225 50.6449 165.061 50.6854 164.878 50.7237C164.694 50.7578 164.511 50.7898 164.328 50.8196C164.145 50.8452 163.979 50.8686 163.829 50.8899C163.51 50.9368 163.231 51.0114 162.992 51.1136C162.753 51.2159 162.568 51.3544 162.436 51.5291C162.304 51.6996 162.238 51.9126 162.238 52.1683C162.238 52.5391 162.372 52.8224 162.64 53.0185C162.913 53.2102 163.258 53.3061 163.676 53.3061ZM174.974 55.1918C173.968 55.1918 173.103 54.9787 172.379 54.5526C171.659 54.1222 171.105 53.5256 170.717 52.7628C170.333 52 170.142 51.1222 170.142 50.1293C170.142 49.1236 170.335 48.2415 170.723 47.483C171.115 46.7202 171.671 46.1257 172.392 45.6996C173.112 45.2692 173.968 45.054 174.961 45.054C175.818 45.054 176.568 45.2095 177.211 45.5206C177.855 45.8317 178.364 46.2685 178.739 46.831C179.114 47.3935 179.32 48.054 179.359 48.8125H176.789C176.717 48.3224 176.525 47.9283 176.214 47.63C175.907 47.3274 175.504 47.1761 175.006 47.1761C174.584 47.1761 174.215 47.2912 173.9 47.5213C173.589 47.7472 173.346 48.0774 173.171 48.5121C172.997 48.9467 172.909 49.473 172.909 50.0909C172.909 50.7173 172.994 51.25 173.165 51.6889C173.34 52.1278 173.585 52.4624 173.9 52.6925C174.215 52.9226 174.584 53.0376 175.006 53.0376C175.317 53.0376 175.596 52.9737 175.843 52.8459C176.095 52.718 176.301 52.5327 176.463 52.2898C176.629 52.0426 176.738 51.7464 176.789 51.4013H179.359C179.316 52.1513 179.112 52.8118 178.745 53.3828C178.383 53.9496 177.882 54.3928 177.243 54.7124C176.604 55.032 175.847 55.1918 174.974 55.1918ZM185.538 55.1918C184.533 55.1918 183.668 54.9787 182.943 54.5526C182.223 54.1222 181.669 53.5256 181.281 52.7628C180.898 52 180.706 51.1222 180.706 50.1293C180.706 49.1236 180.9 48.2415 181.288 47.483C181.68 46.7202 182.236 46.1257 182.956 45.6996C183.676 45.2692 184.533 45.054 185.526 45.054C186.382 45.054 187.132 45.2095 187.776 45.5206C188.419 45.8317 188.928 46.2685 189.303 46.831C189.678 47.3935 189.885 48.054 189.923 48.8125H187.354C187.281 48.3224 187.089 47.9283 186.778 47.63C186.472 47.3274 186.069 47.1761 185.57 47.1761C185.148 47.1761 184.78 47.2912 184.464 47.5213C184.153 47.7472 183.911 48.0774 183.736 48.5121C183.561 48.9467 183.474 49.473 183.474 50.0909C183.474 50.7173 183.559 51.25 183.729 51.6889C183.904 52.1278 184.149 52.4624 184.464 52.6925C184.78 52.9226 185.148 53.0376 185.57 53.0376C185.881 53.0376 186.161 52.9737 186.408 52.8459C186.659 52.718 186.866 52.5327 187.028 52.2898C187.194 52.0426 187.303 51.7464 187.354 51.4013H189.923C189.881 52.1513 189.676 52.8118 189.31 53.3828C188.947 53.9496 188.447 54.3928 187.808 54.7124C187.168 55.032 186.412 55.1918 185.538 55.1918ZM196.103 55.1918C195.11 55.1918 194.251 54.9808 193.527 54.5589C192.807 54.1328 192.251 53.5405 191.858 52.782C191.466 52.0192 191.27 51.1349 191.27 50.1293C191.27 49.1151 191.466 48.2287 191.858 47.4702C192.251 46.7074 192.807 46.1151 193.527 45.6932C194.251 45.267 195.11 45.054 196.103 45.054C197.096 45.054 197.952 45.267 198.672 45.6932C199.397 46.1151 199.955 46.7074 200.347 47.4702C200.739 48.2287 200.935 49.1151 200.935 50.1293C200.935 51.1349 200.739 52.0192 200.347 52.782C199.955 53.5405 199.397 54.1328 198.672 54.5589C197.952 54.9808 197.096 55.1918 196.103 55.1918ZM196.116 53.0824C196.567 53.0824 196.944 52.9545 197.247 52.6989C197.55 52.4389 197.778 52.0852 197.931 51.6378C198.089 51.1903 198.167 50.6811 198.167 50.1101C198.167 49.5391 198.089 49.0298 197.931 48.5824C197.778 48.1349 197.55 47.7812 197.247 47.5213C196.944 47.2614 196.567 47.1314 196.116 47.1314C195.66 47.1314 195.276 47.2614 194.965 47.5213C194.658 47.7812 194.426 48.1349 194.268 48.5824C194.115 49.0298 194.038 49.5391 194.038 50.1101C194.038 50.6811 194.115 51.1903 194.268 51.6378C194.426 52.0852 194.658 52.4389 194.965 52.6989C195.276 52.9545 195.66 53.0824 196.116 53.0824ZM209.002 50.8196V45.1818H211.725V55H209.111V53.2166H209.008C208.787 53.7919 208.418 54.2543 207.903 54.6037C207.391 54.9531 206.767 55.1278 206.03 55.1278C205.373 55.1278 204.796 54.9787 204.297 54.6804C203.799 54.3821 203.409 53.9581 203.128 53.4084C202.851 52.8587 202.71 52.2003 202.706 51.4332V45.1818H205.429V50.9474C205.433 51.527 205.589 51.9851 205.895 52.3217C206.202 52.6584 206.613 52.8267 207.129 52.8267C207.457 52.8267 207.764 52.7521 208.05 52.603C208.335 52.4496 208.565 52.2237 208.74 51.9254C208.919 51.6271 209.006 51.2585 209.002 50.8196ZM216.626 49.3239V55H213.903V45.1818H216.498V46.9141H216.613C216.831 46.343 217.195 45.8913 217.706 45.5589C218.218 45.2223 218.838 45.054 219.566 45.054C220.248 45.054 220.843 45.2031 221.35 45.5014C221.857 45.7997 222.251 46.2259 222.532 46.7798C222.814 47.3295 222.954 47.9858 222.954 48.7486V55H220.231V49.2344C220.235 48.6335 220.082 48.1648 219.771 47.8281C219.46 47.4872 219.032 47.3168 218.486 47.3168C218.12 47.3168 217.796 47.3956 217.515 47.5533C217.238 47.7109 217.02 47.9411 216.863 48.2436C216.709 48.5419 216.63 48.902 216.626 49.3239ZM230.323 45.1818V47.2273H224.41V45.1818H230.323ZM225.752 42.8295H228.475V51.983C228.475 52.2344 228.514 52.4304 228.59 52.571C228.667 52.7074 228.774 52.8033 228.91 52.8587C229.051 52.9141 229.213 52.9418 229.396 52.9418C229.524 52.9418 229.651 52.9311 229.779 52.9098C229.907 52.8842 230.005 52.8651 230.073 52.8523L230.502 54.8786C230.365 54.9212 230.173 54.9702 229.926 55.0256C229.679 55.0852 229.379 55.1214 229.025 55.1342C228.369 55.1598 227.794 55.0724 227.299 54.8722C226.809 54.6719 226.428 54.3608 226.155 53.9389C225.882 53.517 225.748 52.9844 225.752 52.3409V42.8295Z" fill="white"/>
<path d="M316.205 51.5168L319.723 47.9986L316.205 44.4805" stroke="white" stroke-width="1.75907" stroke-linecap="round"/>
<path d="M41.6857 78.5455V88H39.973V80.212H39.9176L37.7063 81.6246V80.055L40.0561 78.5455H41.6857ZM50.4224 88.1385C49.7299 88.1385 49.1298 87.9862 48.622 87.6815C48.1142 87.3768 47.7202 86.9505 47.4402 86.4027C47.1632 85.8549 47.0247 85.2147 47.0247 84.4822C47.0247 83.7498 47.1632 83.1081 47.4402 82.5572C47.7202 82.0063 48.1142 81.5785 48.622 81.2738C49.1298 80.9691 49.7299 80.8168 50.4224 80.8168C51.1149 80.8168 51.715 80.9691 52.2228 81.2738C52.7306 81.5785 53.123 82.0063 53.4 82.5572C53.6801 83.1081 53.8201 83.7498 53.8201 84.4822C53.8201 85.2147 53.6801 85.8549 53.4 86.4027C53.123 86.9505 52.7306 87.3768 52.2228 87.6815C51.715 87.9862 51.1149 88.1385 50.4224 88.1385ZM50.4316 86.7997C50.8071 86.7997 51.121 86.6966 51.3734 86.4904C51.6258 86.2811 51.8135 86.0011 51.9366 85.6502C52.0628 85.2994 52.1259 84.9085 52.1259 84.4776C52.1259 84.0437 52.0628 83.6513 51.9366 83.3004C51.8135 82.9465 51.6258 82.6649 51.3734 82.4556C51.121 82.2463 50.8071 82.1417 50.4316 82.1417C50.0469 82.1417 49.7269 82.2463 49.4714 82.4556C49.219 82.6649 49.0298 82.9465 48.9036 83.3004C48.7805 83.6513 48.7189 84.0437 48.7189 84.4776C48.7189 84.9085 48.7805 85.2994 48.9036 85.6502C49.0298 86.0011 49.219 86.2811 49.4714 86.4904C49.7269 86.6966 50.0469 86.7997 50.4316 86.7997ZM58.8302 80.9091V82.2017H54.6384V80.9091H58.8302ZM55.6863 88V80.2397C55.6863 79.7627 55.7848 79.3656 55.9818 79.0487C56.1818 78.7317 56.4496 78.4947 56.7851 78.3377C57.1205 78.1808 57.4929 78.1023 57.9023 78.1023C58.1916 78.1023 58.4485 78.1254 58.6732 78.1715C58.8979 78.2177 59.0641 78.2592 59.1718 78.2962L58.8394 79.5888C58.7686 79.5672 58.6794 79.5457 58.5716 79.5241C58.4639 79.4995 58.3439 79.4872 58.2116 79.4872C57.9007 79.4872 57.6807 79.5626 57.5514 79.7134C57.4252 79.8612 57.3621 80.0735 57.3621 80.3505V88H55.6863ZM66.7382 88.1293C66.0734 88.1293 65.4825 88.0154 64.9655 87.7876C64.4515 87.5599 64.0452 87.2429 63.7467 86.8366C63.4482 86.4304 63.2897 85.9611 63.2712 85.4286H65.007C65.0224 85.6841 65.107 85.9072 65.2609 86.098C65.4148 86.2857 65.6195 86.4319 65.8749 86.5366C66.1304 86.6412 66.4166 86.6935 66.7336 86.6935C67.0721 86.6935 67.3722 86.6351 67.6338 86.5181C67.8954 86.3981 68.1001 86.2319 68.2478 86.0195C68.3955 85.8072 68.4678 85.5625 68.4648 85.2855C68.4678 84.9993 68.394 84.7469 68.2432 84.5284C68.0924 84.3099 67.8738 84.1391 67.5876 84.016C67.3045 83.8929 66.9629 83.8313 66.5628 83.8313H65.7272V82.511H66.5628C66.8921 82.511 67.1798 82.4541 67.426 82.3402C67.6753 82.2263 67.8708 82.0663 68.0123 81.8601C68.1539 81.6508 68.2232 81.4092 68.2201 81.1353C68.2232 80.8675 68.1631 80.6352 68.04 80.4382C67.92 80.2382 67.7492 80.0827 67.5276 79.9719C67.3091 79.8612 67.0521 79.8058 66.7567 79.8058C66.4674 79.8058 66.1996 79.8581 65.9534 79.9627C65.7072 80.0674 65.5087 80.2166 65.3579 80.4105C65.2071 80.6013 65.127 80.8291 65.1178 81.0938H63.4697C63.482 80.5644 63.6344 80.0997 63.9268 79.6996C64.2222 79.2964 64.6162 78.9825 65.1086 78.7578C65.601 78.5301 66.1534 78.4162 66.7659 78.4162C67.3968 78.4162 67.9446 78.5347 68.4094 78.7717C68.8772 79.0056 69.2388 79.321 69.4942 79.718C69.7497 80.1151 69.8774 80.5536 69.8774 81.0337C69.8805 81.5662 69.7235 82.0124 69.4065 82.3725C69.0926 82.7326 68.6802 82.968 68.1693 83.0788V83.1527C68.8341 83.245 69.3434 83.4912 69.6974 83.8913C70.0544 84.2884 70.2313 84.7823 70.2282 85.3732C70.2282 85.9026 70.0774 86.3765 69.7758 86.7951C69.4773 87.2106 69.0649 87.5368 68.5386 87.7738C68.0154 88.0108 67.4153 88.1293 66.7382 88.1293ZM80.6603 82.7834L79.1369 82.9496C79.0938 82.7957 79.0184 82.651 78.9107 82.5156C78.806 82.3802 78.6645 82.271 78.486 82.1879C78.3075 82.1048 78.089 82.0632 77.8304 82.0632C77.4827 82.0632 77.1903 82.1386 76.9533 82.2894C76.7194 82.4402 76.604 82.6357 76.6071 82.8757C76.604 83.0819 76.6794 83.2496 76.8333 83.3789C76.9902 83.5082 77.2488 83.6143 77.6088 83.6974L78.8184 83.956C79.4893 84.1006 79.9879 84.3299 80.3141 84.6438C80.6434 84.9577 80.8096 85.3686 80.8127 85.8764C80.8096 86.3227 80.6788 86.7166 80.4203 87.0582C80.1648 87.3968 79.8094 87.6615 79.3539 87.8523C78.8984 88.0431 78.3752 88.1385 77.7843 88.1385C76.9164 88.1385 76.2177 87.9569 75.6884 87.5938C75.159 87.2275 74.8436 86.7182 74.742 86.0657L76.3716 85.9087C76.4455 86.2288 76.6025 86.4704 76.8425 86.6335C77.0826 86.7966 77.3949 86.8782 77.7797 86.8782C78.1767 86.8782 78.4952 86.7966 78.7353 86.6335C78.9784 86.4704 79.1 86.2688 79.1 86.0288C79.1 85.8256 79.0215 85.6579 78.8645 85.5256C78.7106 85.3932 78.4706 85.2917 78.1444 85.2209L76.9348 84.967C76.2547 84.8254 75.7515 84.5869 75.4252 84.2514C75.099 83.9129 74.9374 83.4851 74.9405 82.968C74.9374 82.531 75.0559 82.1525 75.296 81.8324C75.5391 81.5092 75.8761 81.2599 76.307 81.0845C76.7409 80.906 77.2411 80.8168 77.8074 80.8168C78.6383 80.8168 79.2923 80.9937 79.7694 81.3477C80.2495 81.7016 80.5465 82.1802 80.6603 82.7834ZM85.7315 80.9091V82.2017H81.6552V80.9091H85.7315ZM82.6616 79.2102H84.3327V85.8672C84.3327 86.0919 84.3666 86.2642 84.4343 86.3842C84.5051 86.5012 84.5974 86.5812 84.7113 86.6243C84.8252 86.6674 84.9513 86.6889 85.0898 86.6889C85.1945 86.6889 85.2899 86.6812 85.3761 86.6658C85.4653 86.6504 85.533 86.6366 85.5792 86.6243L85.8608 87.9308C85.7715 87.9615 85.6438 87.9954 85.4776 88.0323C85.3145 88.0692 85.1145 88.0908 84.8775 88.0969C84.4589 88.1093 84.0819 88.0462 83.7464 87.9077C83.411 87.7661 83.1448 87.5476 82.9478 87.2521C82.7539 86.9567 82.6585 86.5874 82.6616 86.1442V79.2102ZM90.1922 88.1385C89.4813 88.1385 88.8673 87.9908 88.3502 87.6953C87.8363 87.3968 87.4408 86.9751 87.1638 86.4304C86.8868 85.8826 86.7483 85.2378 86.7483 84.4961C86.7483 83.7667 86.8868 83.1265 87.1638 82.5756C87.4439 82.0217 87.8347 81.5908 88.3364 81.283C88.838 80.9722 89.4274 80.8168 90.1045 80.8168C90.5415 80.8168 90.9539 80.8875 91.3417 81.0291C91.7326 81.1676 92.0773 81.383 92.3758 81.6754C92.6774 81.9678 92.9144 82.3402 93.0867 82.7926C93.2591 83.242 93.3453 83.7775 93.3453 84.3991V84.9116H87.5331V83.7852H91.7433C91.7403 83.4651 91.671 83.1804 91.5356 82.9311C91.4002 82.6787 91.2109 82.4802 90.9678 82.3356C90.7277 82.1909 90.4477 82.1186 90.1276 82.1186C89.786 82.1186 89.4859 82.2017 89.2274 82.3679C88.9688 82.531 88.7673 82.7464 88.6226 83.0142C88.481 83.2789 88.4087 83.5697 88.4056 83.8867V84.87C88.4056 85.2824 88.481 85.6364 88.6318 85.9318C88.7826 86.2242 88.9935 86.4489 89.2643 86.6058C89.5351 86.7597 89.8521 86.8366 90.2153 86.8366C90.4584 86.8366 90.6785 86.8028 90.8754 86.7351C91.0724 86.6643 91.2432 86.5612 91.3879 86.4258C91.5325 86.2904 91.6418 86.1226 91.7156 85.9226L93.276 86.098C93.1775 86.5104 92.9898 86.8705 92.7128 87.1783C92.4389 87.483 92.088 87.7199 91.6602 87.8892C91.2325 88.0554 90.7431 88.1385 90.1922 88.1385ZM94.7591 90.6591V80.9091H96.4025V82.0817H96.4995C96.5856 81.9093 96.7072 81.7262 96.8642 81.5323C97.0211 81.3353 97.2335 81.1676 97.5012 81.0291C97.769 80.8875 98.1106 80.8168 98.5261 80.8168C99.0739 80.8168 99.5679 80.9568 100.008 81.2369C100.451 81.5138 100.802 81.9247 101.061 82.4695C101.322 83.0111 101.453 83.6759 101.453 84.4638C101.453 85.2424 101.325 85.9041 101.07 86.4489C100.814 86.9936 100.467 87.4091 100.026 87.6953C99.5864 87.9815 99.0878 88.1246 98.5307 88.1246C98.1245 88.1246 97.7875 88.0569 97.5197 87.9215C97.252 87.7861 97.0365 87.623 96.8734 87.4322C96.7134 87.2383 96.5887 87.0552 96.4995 86.8828H96.4302V90.6591H94.7591ZM96.3979 84.4545C96.3979 84.9131 96.4625 85.3147 96.5918 85.6594C96.7241 86.0041 96.9134 86.2734 97.1596 86.4673C97.4089 86.6581 97.7105 86.7536 98.0645 86.7536C98.4338 86.7536 98.7431 86.6551 98.9924 86.4581C99.2417 86.258 99.4294 85.9857 99.5556 85.641C99.6848 85.2932 99.7495 84.8977 99.7495 84.4545C99.7495 84.0144 99.6864 83.6236 99.5602 83.282C99.434 82.9403 99.2463 82.6726 98.997 82.4787C98.7477 82.2848 98.4368 82.1879 98.0645 82.1879C97.7074 82.1879 97.4043 82.2817 97.155 82.4695C96.9057 82.6572 96.7164 82.9203 96.5872 83.2589C96.461 83.5974 96.3979 83.996 96.3979 84.4545ZM108.488 82.7834L106.965 82.9496C106.922 82.7957 106.847 82.651 106.739 82.5156C106.634 82.3802 106.493 82.271 106.314 82.1879C106.136 82.1048 105.917 82.0632 105.659 82.0632C105.311 82.0632 105.018 82.1386 104.781 82.2894C104.548 82.4402 104.432 82.6357 104.435 82.8757C104.432 83.0819 104.508 83.2496 104.661 83.3789C104.818 83.5082 105.077 83.6143 105.437 83.6974L106.646 83.956C107.317 84.1006 107.816 84.3299 108.142 84.6438C108.472 84.9577 108.638 85.3686 108.641 85.8764C108.638 86.3227 108.507 86.7166 108.248 87.0582C107.993 87.3968 107.637 87.6615 107.182 87.8523C106.727 88.0431 106.203 88.1385 105.612 88.1385C104.744 88.1385 104.046 87.9569 103.517 87.5938C102.987 87.2275 102.672 86.7182 102.57 86.0657L104.2 85.9087C104.274 86.2288 104.431 86.4704 104.671 86.6335C104.911 86.7966 105.223 86.8782 105.608 86.8782C106.005 86.8782 106.323 86.7966 106.563 86.6335C106.807 86.4704 106.928 86.2688 106.928 86.0288C106.928 85.8256 106.85 85.6579 106.693 85.5256C106.539 85.3932 106.299 85.2917 105.972 85.2209L104.763 84.967C104.083 84.8254 103.58 84.5869 103.253 84.2514C102.927 83.9129 102.766 83.4851 102.769 82.968C102.766 82.531 102.884 82.1525 103.124 81.8324C103.367 81.5092 103.704 81.2599 104.135 81.0845C104.569 80.906 105.069 80.8168 105.635 80.8168C106.466 80.8168 107.12 80.9937 107.597 81.3477C108.078 81.7016 108.375 82.1802 108.488 82.7834ZM116.336 88.1385C115.629 88.1385 115.021 87.9831 114.513 87.6722C114.008 87.3614 113.619 86.9321 113.345 86.3842C113.074 85.8333 112.939 85.1993 112.939 84.4822C112.939 83.7621 113.077 83.1265 113.354 82.5756C113.631 82.0217 114.022 81.5908 114.527 81.283C115.035 80.9722 115.635 80.8168 116.327 80.8168C116.903 80.8168 117.412 80.9229 117.855 81.1353C118.302 81.3446 118.657 81.6416 118.922 82.0263C119.186 82.4079 119.337 82.8542 119.374 83.3651H117.777C117.712 83.0234 117.558 82.7388 117.315 82.511C117.075 82.2802 116.753 82.1648 116.35 82.1648C116.009 82.1648 115.709 82.2571 115.45 82.4418C115.192 82.6233 114.99 82.8849 114.845 83.2266C114.704 83.5682 114.633 83.9775 114.633 84.4545C114.633 84.9377 114.704 85.3532 114.845 85.701C114.987 86.0457 115.185 86.3119 115.441 86.4996C115.699 86.6843 116.003 86.7766 116.35 86.7766C116.597 86.7766 116.817 86.7305 117.01 86.6381C117.207 86.5427 117.372 86.4058 117.504 86.2273C117.637 86.0488 117.728 85.8318 117.777 85.5763H119.374C119.334 86.078 119.186 86.5227 118.931 86.9105C118.675 87.2952 118.328 87.5968 117.888 87.8153C117.448 88.0308 116.93 88.1385 116.336 88.1385ZM123.839 88.1385C123.147 88.1385 122.547 87.9862 122.039 87.6815C121.531 87.3768 121.137 86.9505 120.857 86.4027C120.58 85.8549 120.442 85.2147 120.442 84.4822C120.442 83.7498 120.58 83.1081 120.857 82.5572C121.137 82.0063 121.531 81.5785 122.039 81.2738C122.547 80.9691 123.147 80.8168 123.839 80.8168C124.532 80.8168 125.132 80.9691 125.64 81.2738C126.148 81.5785 126.54 82.0063 126.817 82.5572C127.097 83.1081 127.237 83.7498 127.237 84.4822C127.237 85.2147 127.097 85.8549 126.817 86.4027C126.54 86.9505 126.148 87.3768 125.64 87.6815C125.132 87.9862 124.532 88.1385 123.839 88.1385ZM123.849 86.7997C124.224 86.7997 124.538 86.6966 124.79 86.4904C125.043 86.2811 125.23 86.0011 125.354 85.6502C125.48 85.2994 125.543 84.9085 125.543 84.4776C125.543 84.0437 125.48 83.6513 125.354 83.3004C125.23 82.9465 125.043 82.6649 124.79 82.4556C124.538 82.2463 124.224 82.1417 123.849 82.1417C123.464 82.1417 123.144 82.2463 122.888 82.4556C122.636 82.6649 122.447 82.9465 122.321 83.3004C122.197 83.6513 122.136 84.0437 122.136 84.4776C122.136 84.9085 122.197 85.2994 122.321 85.6502C122.447 86.0011 122.636 86.2811 122.888 86.4904C123.144 86.6966 123.464 86.7997 123.849 86.7997ZM128.656 88V80.9091H130.253V82.114H130.336C130.484 81.7077 130.728 81.3907 131.07 81.163C131.412 80.9322 131.819 80.8168 132.293 80.8168C132.773 80.8168 133.178 80.9337 133.507 81.1676C133.84 81.3984 134.074 81.7139 134.209 82.114H134.283C134.44 81.7201 134.705 81.4061 135.077 81.1722C135.453 80.9353 135.897 80.8168 136.411 80.8168C137.064 80.8168 137.596 81.023 138.009 81.4354C138.421 81.8478 138.627 82.4495 138.627 83.2404V88H136.951V83.4989C136.951 83.0588 136.834 82.7372 136.6 82.5341C136.367 82.3279 136.08 82.2248 135.742 82.2248C135.339 82.2248 135.023 82.351 134.795 82.6033C134.571 82.8526 134.458 83.1773 134.458 83.5774V88H132.82V83.4297C132.82 83.0634 132.709 82.7711 132.487 82.5526C132.269 82.334 131.982 82.2248 131.629 82.2248C131.388 82.2248 131.17 82.2863 130.973 82.4094C130.776 82.5295 130.619 82.7003 130.502 82.9219C130.385 83.1404 130.327 83.3958 130.327 83.6882V88H128.656ZM140.323 90.6591V80.9091H141.966V82.0817H142.063C142.149 81.9093 142.271 81.7262 142.428 81.5323C142.585 81.3353 142.797 81.1676 143.065 81.0291C143.332 80.8875 143.674 80.8168 144.09 80.8168C144.637 80.8168 145.131 80.9568 145.571 81.2369C146.015 81.5138 146.366 81.9247 146.624 82.4695C146.886 83.0111 147.016 83.6759 147.016 84.4638C147.016 85.2424 146.889 85.9041 146.633 86.4489C146.378 86.9936 146.03 87.4091 145.59 87.6953C145.15 87.9815 144.651 88.1246 144.094 88.1246C143.688 88.1246 143.351 88.0569 143.083 87.9215C142.815 87.7861 142.6 87.623 142.437 87.4322C142.277 87.2383 142.152 87.0552 142.063 86.8828H141.994V90.6591H140.323ZM141.961 84.4545C141.961 84.9131 142.026 85.3147 142.155 85.6594C142.288 86.0041 142.477 86.2734 142.723 86.4673C142.972 86.6581 143.274 86.7536 143.628 86.7536C143.997 86.7536 144.307 86.6551 144.556 86.4581C144.805 86.258 144.993 85.9857 145.119 85.641C145.248 85.2932 145.313 84.8977 145.313 84.4545C145.313 84.0144 145.25 83.6236 145.124 83.282C144.997 82.9403 144.81 82.6726 144.56 82.4787C144.311 82.2848 144 82.1879 143.628 82.1879C143.271 82.1879 142.968 82.2817 142.718 82.4695C142.469 82.6572 142.28 82.9203 142.151 83.2589C142.024 83.5974 141.961 83.996 141.961 84.4545ZM150.119 78.5455V88H148.448V78.5455H150.119ZM154.976 88.1385C154.265 88.1385 153.651 87.9908 153.134 87.6953C152.62 87.3968 152.225 86.9751 151.948 86.4304C151.671 85.8826 151.532 85.2378 151.532 84.4961C151.532 83.7667 151.671 83.1265 151.948 82.5756C152.228 82.0217 152.619 81.5908 153.121 81.283C153.622 80.9722 154.212 80.8168 154.889 80.8168C155.326 80.8168 155.738 80.8875 156.126 81.0291C156.517 81.1676 156.861 81.383 157.16 81.6754C157.462 81.9678 157.699 82.3402 157.871 82.7926C158.043 83.242 158.129 83.7775 158.129 84.3991V84.9116H152.317V83.7852H156.528C156.524 83.4651 156.455 83.1804 156.32 82.9311C156.184 82.6787 155.995 82.4802 155.752 82.3356C155.512 82.1909 155.232 82.1186 154.912 82.1186C154.57 82.1186 154.27 82.2017 154.012 82.3679C153.753 82.531 153.551 82.7464 153.407 83.0142C153.265 83.2789 153.193 83.5697 153.19 83.8867V84.87C153.19 85.2824 153.265 85.6364 153.416 85.9318C153.567 86.2242 153.778 86.4489 154.048 86.6058C154.319 86.7597 154.636 86.8366 154.999 86.8366C155.243 86.8366 155.463 86.8028 155.66 86.7351C155.857 86.6643 156.027 86.5612 156.172 86.4258C156.317 86.2904 156.426 86.1226 156.5 85.9226L158.06 86.098C157.962 86.5104 157.774 86.8705 157.497 87.1783C157.223 87.483 156.872 87.7199 156.444 87.8892C156.017 88.0554 155.527 88.1385 154.976 88.1385ZM163.084 80.9091V82.2017H159.008V80.9091H163.084ZM160.014 79.2102H161.685V85.8672C161.685 86.0919 161.719 86.2642 161.787 86.3842C161.858 86.5012 161.95 86.5812 162.064 86.6243C162.178 86.6674 162.304 86.6889 162.442 86.6889C162.547 86.6889 162.642 86.6812 162.729 86.6658C162.818 86.6504 162.886 86.6366 162.932 86.6243L163.213 87.9308C163.124 87.9615 162.996 87.9954 162.83 88.0323C162.667 88.0692 162.467 88.0908 162.23 88.0969C161.811 88.1093 161.434 88.0462 161.099 87.9077C160.764 87.7661 160.497 87.5476 160.3 87.2521C160.106 86.9567 160.011 86.5874 160.014 86.1442V79.2102ZM167.545 88.1385C166.834 88.1385 166.22 87.9908 165.703 87.6953C165.189 87.3968 164.793 86.9751 164.516 86.4304C164.239 85.8826 164.101 85.2378 164.101 84.4961C164.101 83.7667 164.239 83.1265 164.516 82.5756C164.796 82.0217 165.187 81.5908 165.689 81.283C166.191 80.9722 166.78 80.8168 167.457 80.8168C167.894 80.8168 168.306 80.8875 168.694 81.0291C169.085 81.1676 169.43 81.383 169.728 81.6754C170.03 81.9678 170.267 82.3402 170.439 82.7926C170.612 83.242 170.698 83.7775 170.698 84.3991V84.9116H164.886V83.7852H169.096C169.093 83.4651 169.024 83.1804 168.888 82.9311C168.753 82.6787 168.563 82.4802 168.32 82.3356C168.08 82.1909 167.8 82.1186 167.48 82.1186C167.138 82.1186 166.838 82.2017 166.58 82.3679C166.321 82.531 166.12 82.7464 165.975 83.0142C165.834 83.2789 165.761 83.5697 165.758 83.8867V84.87C165.758 85.2824 165.834 85.6364 165.984 85.9318C166.135 86.2242 166.346 86.4489 166.617 86.6058C166.888 86.7597 167.205 86.8366 167.568 86.8366C167.811 86.8366 168.031 86.8028 168.228 86.7351C168.425 86.6643 168.596 86.5612 168.74 86.4258C168.885 86.2904 168.994 86.1226 169.068 85.9226L170.629 86.098C170.53 86.5104 170.342 86.8705 170.065 87.1783C169.791 87.483 169.441 87.7199 169.013 87.8892C168.585 88.0554 168.096 88.1385 167.545 88.1385ZM174.743 88.1246C174.186 88.1246 173.687 87.9815 173.247 87.6953C172.807 87.4091 172.459 86.9936 172.204 86.4489C171.948 85.9041 171.821 85.2424 171.821 84.4638C171.821 83.6759 171.95 83.0111 172.209 82.4695C172.47 81.9247 172.823 81.5138 173.266 81.2369C173.709 80.9568 174.203 80.8168 174.748 80.8168C175.163 80.8168 175.505 80.8875 175.772 81.0291C176.04 81.1676 176.253 81.3353 176.41 81.5323C176.566 81.7262 176.688 81.9093 176.774 82.0817H176.843V78.5455H178.519V88H176.876V86.8828H176.774C176.688 87.0552 176.563 87.2383 176.4 87.4322C176.237 87.623 176.022 87.7861 175.754 87.9215C175.486 88.0569 175.149 88.1246 174.743 88.1246ZM175.209 86.7536C175.563 86.7536 175.865 86.6581 176.114 86.4673C176.363 86.2734 176.553 86.0041 176.682 85.6594C176.811 85.3147 176.876 84.9131 176.876 84.4545C176.876 83.996 176.811 83.5974 176.682 83.2589C176.556 82.9203 176.368 82.6572 176.119 82.4695C175.872 82.2817 175.569 82.1879 175.209 82.1879C174.837 82.1879 174.526 82.2848 174.277 82.4787C174.027 82.6726 173.84 82.9403 173.714 83.282C173.587 83.6236 173.524 84.0144 173.524 84.4545C173.524 84.8977 173.587 85.2932 173.714 85.641C173.843 85.9857 174.032 86.258 174.281 86.4581C174.534 86.6551 174.843 86.7536 175.209 86.7536Z" fill="white"/>
<g clip-path="url(#clip0_1652_20148)">
<path d="M280 88.8327C283.222 88.8327 285.834 86.221 285.834 82.9993C285.834 79.7777 283.222 77.166 280 77.166C276.779 77.166 274.167 79.7777 274.167 82.9993C274.167 86.221 276.779 88.8327 280 88.8327Z" stroke="white" stroke-opacity="0.8" stroke-width="2" stroke-linecap="round" stroke-linejoin="round"/>
<path d="M280 79.5V83L282.333 84.1667" stroke="white" stroke-opacity="0.8" stroke-width="2" stroke-linecap="round" stroke-linejoin="round"/>
</g>
<path d="M295.118 88.1293C294.73 88.1231 294.342 88.0492 293.955 87.9077C293.567 87.7661 293.213 87.5276 292.893 87.1921C292.573 86.8536 292.316 86.3965 292.122 85.821C291.928 85.2424 291.831 84.5161 291.831 83.642C291.831 82.8049 291.909 82.0632 292.066 81.4169C292.223 80.7675 292.451 80.2212 292.75 79.7781C293.048 79.3318 293.408 78.9933 293.83 78.7624C294.255 78.5316 294.733 78.4162 295.266 78.4162C295.795 78.4162 296.266 78.5224 296.678 78.7347C297.094 78.944 297.432 79.2364 297.694 79.6119C297.955 79.9873 298.125 80.4197 298.202 80.9091H297.075C296.971 80.4844 296.768 80.132 296.466 79.8519C296.164 79.5719 295.764 79.4318 295.266 79.4318C294.533 79.4318 293.956 79.7504 293.534 80.3874C293.116 81.0245 292.905 81.9186 292.902 83.0696H292.976C293.148 82.808 293.353 82.5849 293.59 82.4002C293.83 82.2125 294.095 82.0678 294.384 81.9663C294.673 81.8647 294.979 81.8139 295.303 81.8139C295.844 81.8139 296.34 81.9493 296.789 82.2202C297.238 82.4879 297.598 82.8588 297.869 83.3327C298.14 83.8036 298.276 84.3438 298.276 84.9531C298.276 85.5379 298.145 86.0734 297.883 86.5597C297.622 87.0429 297.254 87.4276 296.78 87.7138C296.309 87.9969 295.755 88.1354 295.118 88.1293ZM295.118 87.1136C295.506 87.1136 295.853 87.0167 296.161 86.8228C296.472 86.6289 296.717 86.3688 296.895 86.0426C297.077 85.7164 297.168 85.3532 297.168 84.9531C297.168 84.5623 297.08 84.2068 296.904 83.8867C296.732 83.5636 296.494 83.3066 296.189 83.1158C295.887 82.925 295.543 82.8295 295.155 82.8295C294.862 82.8295 294.59 82.888 294.338 83.005C294.085 83.1188 293.864 83.2758 293.673 83.4759C293.485 83.6759 293.337 83.9052 293.23 84.1637C293.122 84.4192 293.068 84.6884 293.068 84.9716C293.068 85.3471 293.156 85.6979 293.331 86.0241C293.51 86.3504 293.753 86.6135 294.061 86.8136C294.372 87.0136 294.724 87.1136 295.118 87.1136ZM303.766 88V80.9091H304.818V82.017H304.911C305.058 81.6385 305.297 81.3446 305.626 81.1353C305.955 80.9229 306.351 80.8168 306.813 80.8168C307.28 80.8168 307.67 80.9229 307.981 81.1353C308.294 81.3446 308.539 81.6385 308.715 82.017H308.788C308.97 81.6508 309.242 81.36 309.606 81.1445C309.969 80.926 310.404 80.8168 310.912 80.8168C311.546 80.8168 312.065 81.0153 312.468 81.4123C312.871 81.8062 313.073 82.4202 313.073 83.2543V88H311.983V83.2543C311.983 82.7311 311.84 82.3571 311.554 82.1325C311.267 81.9078 310.93 81.7955 310.543 81.7955C310.044 81.7955 309.658 81.9463 309.384 82.2479C309.11 82.5464 308.973 82.925 308.973 83.3835V88H307.865V83.1435C307.865 82.7403 307.734 82.4156 307.473 82.1694C307.211 81.9201 306.874 81.7955 306.462 81.7955C306.179 81.7955 305.914 81.8709 305.668 82.0217C305.425 82.1725 305.228 82.3817 305.077 82.6495C304.929 82.9142 304.855 83.2204 304.855 83.5682V88H303.766ZM315.065 88V80.9091H316.154V88H315.065ZM315.619 79.7273C315.406 79.7273 315.223 79.6549 315.069 79.5103C314.918 79.3656 314.843 79.1918 314.843 78.9886C314.843 78.7855 314.918 78.6116 315.069 78.467C315.223 78.3223 315.406 78.25 315.619 78.25C315.831 78.25 316.012 78.3223 316.163 78.467C316.317 78.6116 316.394 78.7855 316.394 78.9886C316.394 79.1918 316.317 79.3656 316.163 79.5103C316.012 79.6549 315.831 79.7273 315.619 79.7273ZM319.239 83.7344V88H318.15V80.9091H319.202V82.017H319.294C319.461 81.657 319.713 81.3677 320.051 81.1491C320.39 80.9276 320.827 80.8168 321.363 80.8168C321.843 80.8168 322.263 80.9152 322.623 81.1122C322.983 81.3061 323.263 81.6016 323.463 81.9986C323.663 82.3925 323.763 82.8911 323.763 83.4943V88H322.674V83.5682C322.674 83.0111 322.529 82.5772 322.24 82.2663C321.95 81.9524 321.553 81.7955 321.049 81.7955C320.701 81.7955 320.39 81.8709 320.116 82.0217C319.845 82.1725 319.631 82.3925 319.474 82.6818C319.317 82.9711 319.239 83.322 319.239 83.7344Z" fill="white" fill-opacity="0.8"/>
<rect x="37" y="99" width="288" height="6" rx="3" fill="white" fill-opacity="0.2"/>
<rect x="37" y="99" width="128" height="6" rx="3" fill="white"/>
</g>
<defs>
<filter id="filter0_d_1652_20148" x="0" y="0" width="362" height="142" filterUnits="userSpaceOnUse" color-interpolation-filters="sRGB">
<feFlood flood-opacity="0" result="BackgroundImageFix"/>
<feColorMatrix in="SourceAlpha" type="matrix" values="0 0 0 0 0 0 0 0 0 0 0 0 0 0 0 0 0 0 127 0" result="hardAlpha"/>
<feOffset/>
<feGaussianBlur stdDeviation="8.5"/>
<feComposite in2="hardAlpha" operator="out"/>
<feColorMatrix type="matrix" values="0 0 0 0 0.478431 0 0 0 0 0.313726 0 0 0 0 0.968627 0 0 0 1 0"/>
<feBlend mode="normal" in2="BackgroundImageFix" result="effect1_dropShadow_1652_20148"/>
<feBlend mode="normal" in="BackgroundImageFix" in2="effect1_dropShadow_1652_20148" result="BackgroundImageFix"/>
<feBlend mode="normal" in="SourceGraphic" in2="BackgroundImageFix" result="shape"/>
</filter>
<linearGradient id="paint0_linear_1652_20148" x1="32.5" y1="17" x2="268.583" y2="188.789" gradientUnits="userSpaceOnUse">
<stop stop-color="#766CB6"/>
<stop offset="1" stop-color="#230F5C"/>
</linearGradient>
<clipPath id="clip0_1652_20148">
<rect width="14" height="14" fill="white" transform="translate(273 76)"/>
</clipPath>
</defs>
</svg>
