<svg width="327" height="104" viewBox="0 0 327 104" fill="none" xmlns="http://www.w3.org/2000/svg">
<g clip-path="url(#clip0_363_188)">
<path d="M44.988 32H32.3656C32.2073 32 32.0514 31.9616 31.9113 31.888C31.7712 31.8144 31.6511 31.7078 31.5614 31.5775L22.5672 18.5297L15.86 8.79973L21.5621 0.528494C21.6744 0.36572 21.8246 0.232655 21.9997 0.140736C22.1748 0.0488169 22.3696 0.000793457 22.5674 0.000793457C22.7651 0.000793457 22.96 0.0488169 23.1351 0.140736C23.3102 0.232655 23.4603 0.36572 23.5726 0.528494L29.2744 8.79973L45.1086 31.7701C45.1238 31.7921 45.1326 31.8179 45.1341 31.8445C45.1357 31.8712 45.13 31.8978 45.1176 31.9214C45.1052 31.9451 45.0865 31.9649 45.0637 31.9787C45.0409 31.9926 45.0147 31.9999 44.988 32V32Z" fill="url(#paint0_linear_363_188)"/>
<path d="M34.1856 15.9241C33.6331 15.1334 32.8978 14.4878 32.0423 14.0422C31.1868 13.5965 30.2364 13.3641 29.2718 13.3645C28.3072 13.365 27.3569 13.5983 26.5019 14.0448C25.6468 14.4912 24.9121 15.1375 24.3604 15.9287C24.3425 15.9542 24.3246 15.9796 24.3077 16.0057L22.5672 18.5297L13.5734 31.5775C13.4836 31.7078 13.3635 31.8144 13.2234 31.888C13.0833 31.9616 12.9274 32 12.7692 32H0.146797C0.120089 31.9999 0.0939062 31.9926 0.0710674 31.9787C0.0482286 31.9649 0.0295995 31.9451 0.0171863 31.9214C0.00477307 31.8978 -0.000953926 31.8712 0.000622067 31.8445C0.00219806 31.8179 0.0110173 31.7921 0.0261301 31.7701L15.86 8.79973L21.5621 0.528494C21.6744 0.36572 21.8246 0.232655 21.9997 0.140736C22.1748 0.0488169 22.3696 0.000793457 22.5674 0.000793457C22.7651 0.000793457 22.96 0.0488169 23.1351 0.140736C23.3102 0.232655 23.4603 0.36572 23.5726 0.528494L29.2744 8.79973L34.1856 15.9241Z" fill="white"/>
</g>
<path d="M17.6601 71L13.9081 56.944L10.1561 71H5.84413L0.692125 50.896H4.83613L8.08413 64.532L11.7801 50.896H16.1201L19.7041 64.588L22.9801 50.896H27.1521L21.9721 71H17.6601ZM34.5367 71.252C30.0567 71.252 27.0607 68.144 27.0607 63.468C27.0607 59.016 30.1687 55.768 34.4807 55.768C39.2127 55.768 42.3487 59.604 41.6487 64.476H31.0367C31.2887 66.912 32.4647 68.256 34.4527 68.256C36.1607 68.256 37.3087 67.416 37.7567 65.932H41.6207C40.7807 69.32 38.1767 71.252 34.5367 71.252ZM34.3967 58.624C32.5767 58.624 31.4287 59.8 31.0927 62.012H37.5327C37.4207 59.94 36.2447 58.624 34.3967 58.624ZM48.1755 71H44.2555V50.896H48.1755V71ZM57.9657 71.28C53.6537 71.28 50.6857 68.088 50.6857 63.524C50.6857 59.044 53.7657 55.768 57.9657 55.768C61.8577 55.768 64.7417 58.4 65.2177 62.432H61.1297C60.9337 60.444 59.7297 59.212 57.9657 59.212C55.9497 59.212 54.6617 60.864 54.6617 63.524C54.6617 66.212 55.9217 67.836 57.9657 67.836C59.7577 67.836 60.9057 66.66 61.1297 64.616H65.2177C64.7697 68.732 61.9697 71.28 57.9657 71.28ZM74.2698 71.28C69.9298 71.28 66.6818 67.864 66.6818 63.524C66.6818 59.156 69.9298 55.768 74.2698 55.768C78.6098 55.768 81.8578 59.156 81.8578 63.524C81.8578 67.864 78.6098 71.28 74.2698 71.28ZM74.2698 67.836C76.2018 67.836 77.8538 66.296 77.8538 63.524C77.8538 60.752 76.2018 59.24 74.2698 59.24C72.3378 59.24 70.6858 60.752 70.6858 63.524C70.6858 66.296 72.3378 67.836 74.2698 67.836ZM88.2335 71H84.3415V56.048H87.9255V58.176C89.0175 56.664 90.4175 55.768 92.4055 55.768C94.4495 55.768 96.0175 56.72 96.7735 58.428C97.9495 56.776 99.4615 55.768 101.701 55.768C104.725 55.768 106.769 57.756 106.769 61.34V71H102.905V62.572C102.905 60.472 102.009 59.212 100.301 59.212C98.7615 59.212 97.5015 60.416 97.5015 62.656V71H93.6375V62.572C93.6375 60.472 92.7415 59.212 91.0335 59.212C89.4655 59.212 88.2335 60.416 88.2335 62.656V71ZM116.595 71.252C112.115 71.252 109.119 68.144 109.119 63.468C109.119 59.016 112.227 55.768 116.539 55.768C121.271 55.768 124.407 59.604 123.707 64.476H113.095C113.347 66.912 114.523 68.256 116.511 68.256C118.219 68.256 119.367 67.416 119.815 65.932H123.679C122.839 69.32 120.235 71.252 116.595 71.252ZM116.455 58.624C114.635 58.624 113.487 59.8 113.151 62.012H119.591C119.479 59.94 118.303 58.624 116.455 58.624ZM147.09 63.524C147.09 67.892 144.486 71.28 140.454 71.28C138.522 71.28 136.898 70.412 135.75 68.844V71H132.166V50.896H136.058V57.98C137.15 56.524 138.662 55.768 140.454 55.768C144.486 55.768 147.09 59.1 147.09 63.524ZM143.086 63.524C143.086 60.668 141.49 59.212 139.586 59.212C137.71 59.212 136.086 60.64 136.086 63.468C136.086 66.296 137.654 67.808 139.586 67.808C141.49 67.808 143.086 66.324 143.086 63.524ZM158.488 71V69.152C157.508 70.552 156.024 71.28 153.98 71.28C150.872 71.28 148.8 69.46 148.8 66.66C148.8 63.748 151.152 62.18 155.52 62.18C156.36 62.18 157.088 62.236 158.012 62.348V61.452C158.012 59.772 157.06 58.792 155.436 58.792C153.756 58.792 152.748 59.772 152.608 61.452H149.108C149.332 58.008 151.824 55.768 155.436 55.768C159.356 55.768 161.652 57.924 161.652 61.592V71H158.488ZM152.468 66.548C152.468 67.808 153.364 68.592 154.82 68.592C156.808 68.592 158.012 67.5 158.012 65.764V64.7C157.088 64.56 156.444 64.504 155.772 64.504C153.56 64.504 152.468 65.204 152.468 66.548ZM171.306 71.28C166.994 71.28 164.026 68.088 164.026 63.524C164.026 59.044 167.106 55.768 171.306 55.768C175.198 55.768 178.082 58.4 178.558 62.432H174.47C174.274 60.444 173.07 59.212 171.306 59.212C169.29 59.212 168.002 60.864 168.002 63.524C168.002 66.212 169.262 67.836 171.306 67.836C173.098 67.836 174.246 66.66 174.47 64.616H178.558C178.11 68.732 175.31 71.28 171.306 71.28ZM184.948 71H181.056V50.896H184.948V62.376L190.408 56.048H194.888L188.7 63.216L195.616 71H190.66L184.948 64.056V71Z" fill="#FCFCFD"/>
<path d="M8.5205 98H1.5605V86.512H3.3205V96.416H8.5205V98ZM13.4376 98.16C11.0376 98.16 9.27763 96.272 9.27763 93.76C9.27763 91.248 11.0376 89.36 13.4376 89.36C15.8376 89.36 17.5976 91.248 17.5976 93.76C17.5976 96.272 15.8376 98.16 13.4376 98.16ZM13.4376 96.736C14.8296 96.736 15.9336 95.616 15.9336 93.76C15.9336 91.904 14.8296 90.8 13.4376 90.8C12.0456 90.8 10.9576 91.904 10.9576 93.76C10.9576 95.616 12.0456 96.736 13.4376 96.736ZM22.4808 101.264C20.2568 101.264 18.8168 100.08 18.7208 98.16H20.2888C20.3848 99.344 21.1528 99.984 22.4648 99.984C23.9208 99.984 24.6888 99.2 24.6888 97.744V96.208C24.2088 97.232 23.2488 97.824 22.0968 97.824C19.9848 97.824 18.4808 96.08 18.4808 93.584C18.4808 91.056 19.9208 89.36 22.0488 89.36C23.2648 89.36 24.2248 89.952 24.8008 91.024V89.52H26.3048V97.712C26.3048 99.936 24.8808 101.264 22.4808 101.264ZM20.1128 93.584C20.1128 95.344 20.9768 96.416 22.3848 96.416C23.7608 96.416 24.6888 95.312 24.6888 93.632C24.6888 91.872 23.7768 90.752 22.3848 90.752C20.9928 90.752 20.1128 91.84 20.1128 93.584ZM33.8536 87.552C33.8536 88.16 33.3736 88.624 32.6856 88.624C31.9976 88.624 31.5016 88.16 31.5016 87.552C31.5016 86.928 31.9976 86.48 32.6856 86.48C33.3736 86.48 33.8536 86.928 33.8536 87.552ZM33.5016 98H31.8856V89.52H33.5016V98ZM37.361 93.216V98H35.745V89.52H37.249V90.928C37.825 89.984 38.785 89.36 39.953 89.36C41.697 89.36 42.849 90.48 42.849 92.512V98H41.233V93.056C41.233 91.6 40.593 90.784 39.393 90.784C38.289 90.784 37.361 91.712 37.361 93.216ZM53.1228 96.432V97.856C52.6268 98.08 52.1948 98.16 51.6828 98.16C50.1148 98.16 49.0268 97.312 49.0268 95.44V90.896H47.1547V89.52H49.0268V87.008H50.6428V89.52H53.2028V90.896H50.6428V95.072C50.6428 96.24 51.2028 96.656 52.0668 96.656C52.4508 96.656 52.7868 96.592 53.1228 96.432ZM58.0626 98.16C55.6626 98.16 53.9026 96.272 53.9026 93.76C53.9026 91.248 55.6626 89.36 58.0626 89.36C60.4626 89.36 62.2226 91.248 62.2226 93.76C62.2226 96.272 60.4626 98.16 58.0626 98.16ZM58.0626 96.736C59.4546 96.736 60.5586 95.616 60.5586 93.76C60.5586 91.904 59.4546 90.8 58.0626 90.8C56.6706 90.8 55.5826 91.904 55.5826 93.76C55.5826 95.616 56.6706 96.736 58.0626 96.736ZM73.9338 95.472C73.9338 97.136 72.6378 98.16 70.3818 98.16C68.1418 98.16 66.8138 97.056 66.6538 95.232H68.2057C68.2698 96.288 69.1178 96.944 70.4138 96.944C71.5498 96.944 72.3018 96.544 72.3018 95.744C72.3018 95.04 71.8698 94.736 70.8138 94.528L69.4378 94.272C67.8698 93.968 66.9898 93.168 66.9898 91.888C66.9898 90.4 68.2858 89.36 70.2538 89.36C72.2858 89.36 73.6618 90.448 73.8058 92.192H72.2538C72.1578 91.168 71.4058 90.576 70.2698 90.576C69.2458 90.576 68.5578 91.008 68.5578 91.744C68.5578 92.432 68.9898 92.752 70.0138 92.944L71.4538 93.216C73.1338 93.52 73.9338 94.256 73.9338 95.472ZM80.3728 96.432V97.856C79.8768 98.08 79.4448 98.16 78.9328 98.16C77.3648 98.16 76.2768 97.312 76.2768 95.44V90.896H74.4047V89.52H76.2768V87.008H77.8928V89.52H80.4528V90.896H77.8928V95.072C77.8928 96.24 78.4528 96.656 79.3168 96.656C79.7008 96.656 80.0368 96.592 80.3728 96.432ZM87.131 98V96.688C86.603 97.632 85.659 98.16 84.411 98.16C82.651 98.16 81.499 97.152 81.499 95.6C81.499 93.936 82.827 93.072 85.355 93.072C85.851 93.072 86.251 93.088 86.939 93.168V92.544C86.939 91.328 86.283 90.64 85.163 90.64C83.979 90.64 83.259 91.344 83.211 92.528H81.739C81.819 90.624 83.179 89.36 85.163 89.36C87.259 89.36 88.475 90.544 88.475 92.56V98H87.131ZM83.035 95.552C83.035 96.432 83.691 97.008 84.731 97.008C86.091 97.008 86.939 96.16 86.939 94.864V94.176C86.315 94.096 85.867 94.08 85.451 94.08C83.835 94.08 83.035 94.56 83.035 95.552ZM92.2516 93.664V98H90.6356V89.52H92.1396V91.312C92.7316 90.144 94.0116 89.408 95.4036 89.408V91.088C93.5796 90.992 92.2516 91.792 92.2516 93.664ZM101.982 96.432V97.856C101.486 98.08 101.054 98.16 100.542 98.16C98.9741 98.16 97.8861 97.312 97.8861 95.44V90.896H96.0141V89.52H97.8861V87.008H99.5021V89.52H102.062V90.896H99.5021V95.072C99.5021 96.24 100.062 96.656 100.926 96.656C101.31 96.656 101.646 96.592 101.982 96.432ZM112.244 94.512V89.52H113.86V98H112.356V96.656C111.908 97.536 110.916 98.16 109.764 98.16C108.052 98.16 106.868 97.152 106.868 94.976V89.52H108.484V94.656C108.484 96.128 109.22 96.736 110.276 96.736C111.364 96.736 112.244 95.84 112.244 94.512ZM122.824 95.472C122.824 97.136 121.528 98.16 119.272 98.16C117.032 98.16 115.704 97.056 115.544 95.232H117.096C117.16 96.288 118.008 96.944 119.304 96.944C120.44 96.944 121.192 96.544 121.192 95.744C121.192 95.04 120.76 94.736 119.704 94.528L118.328 94.272C116.76 93.968 115.88 93.168 115.88 91.888C115.88 90.4 117.176 89.36 119.144 89.36C121.176 89.36 122.552 90.448 122.696 92.192H121.144C121.048 91.168 120.296 90.576 119.16 90.576C118.136 90.576 117.448 91.008 117.448 91.744C117.448 92.432 117.88 92.752 118.904 92.944L120.344 93.216C122.024 93.52 122.824 94.256 122.824 95.472ZM126.557 87.552C126.557 88.16 126.077 88.624 125.389 88.624C124.701 88.624 124.205 88.16 124.205 87.552C124.205 86.928 124.701 86.48 125.389 86.48C126.077 86.48 126.557 86.928 126.557 87.552ZM126.205 98H124.589V89.52H126.205V98ZM130.064 93.216V98H128.448V89.52H129.952V90.928C130.528 89.984 131.488 89.36 132.656 89.36C134.4 89.36 135.552 90.48 135.552 92.512V98H133.936V93.056C133.936 91.6 133.296 90.784 132.096 90.784C130.992 90.784 130.064 91.712 130.064 93.216ZM141.09 101.264C138.866 101.264 137.426 100.08 137.33 98.16H138.898C138.994 99.344 139.762 99.984 141.074 99.984C142.53 99.984 143.298 99.2 143.298 97.744V96.208C142.818 97.232 141.858 97.824 140.706 97.824C138.594 97.824 137.09 96.08 137.09 93.584C137.09 91.056 138.53 89.36 140.658 89.36C141.874 89.36 142.834 89.952 143.41 91.024V89.52H144.914V97.712C144.914 99.936 143.49 101.264 141.09 101.264ZM138.722 93.584C138.722 95.344 139.586 96.416 140.994 96.416C142.37 96.416 143.298 95.312 143.298 93.632C143.298 91.872 142.386 90.752 140.994 90.752C139.602 90.752 138.722 91.84 138.722 93.584ZM155.791 98.24C152.463 98.24 149.951 95.632 149.951 92.24C149.951 88.848 152.463 86.272 155.791 86.272C159.119 86.272 161.631 88.848 161.631 92.24C161.631 95.632 159.119 98.24 155.791 98.24ZM155.791 96.656C158.223 96.656 159.807 94.704 159.807 92.24C159.807 89.776 158.223 87.856 155.791 87.856C153.359 87.856 151.775 89.776 151.775 92.24C151.775 94.704 153.359 96.656 155.791 96.656ZM164.939 93.216V98H163.323V89.52H164.827V90.928C165.403 89.984 166.363 89.36 167.531 89.36C169.275 89.36 170.427 90.48 170.427 92.512V98H168.811V93.056C168.811 91.6 168.171 90.784 166.971 90.784C165.867 90.784 164.939 91.712 164.939 93.216ZM177.326 96.432V97.856C176.83 98.08 176.398 98.16 175.886 98.16C174.318 98.16 173.23 97.312 173.23 95.44V90.896H171.358V89.52H173.23V87.008H174.846V89.52H177.406V90.896H174.846V95.072C174.846 96.24 175.406 96.656 176.27 96.656C176.654 96.656 176.99 96.592 177.326 96.432ZM182.266 98.16C179.866 98.16 178.106 96.272 178.106 93.76C178.106 91.248 179.866 89.36 182.266 89.36C184.666 89.36 186.426 91.248 186.426 93.76C186.426 96.272 184.666 98.16 182.266 98.16ZM182.266 96.736C183.658 96.736 184.762 95.616 184.762 93.76C184.762 91.904 183.658 90.8 182.266 90.8C180.874 90.8 179.786 91.904 179.786 93.76C179.786 95.616 180.874 96.736 182.266 96.736ZM196.169 93.76C196.169 96.32 194.697 98.16 192.425 98.16C191.273 98.16 190.297 97.584 189.689 96.56V101.088H188.073V89.52H189.577V91.072C190.185 89.984 191.225 89.36 192.425 89.36C194.681 89.36 196.169 91.2 196.169 93.76ZM194.489 93.76C194.489 91.856 193.481 90.784 192.089 90.784C190.745 90.784 189.689 91.856 189.689 93.76C189.689 95.632 190.729 96.72 192.089 96.72C193.481 96.72 194.489 95.664 194.489 93.76Z" fill="#FCFCFD"/>
<defs>
<linearGradient id="paint0_linear_363_188" x1="22.6682" y1="8.98735" x2="43.2739" y2="38.7072" gradientUnits="userSpaceOnUse">
<stop stop-color="white"/>
<stop offset="1" stop-color="white" stop-opacity="0"/>
</linearGradient>
<clipPath id="clip0_363_188">
<rect width="45.1348" height="32" fill="white"/>
</clipPath>
</defs>
</svg>
